<?xml version="1.0" encoding="utf-8"?>
<!-- Generator: Adobe Illustrator 25.2.3, SVG Export Plug-In . SVG Version: 6.00 Build 0)  -->
<svg version="1.1" id="레이어_3" xmlns="http://www.w3.org/2000/svg" xmlns:xlink="http://www.w3.org/1999/xlink" x="0px"
	 y="0px" viewBox="0 0 400 400" style="enable-background:new 0 0 400 400;" xml:space="preserve">
<style type="text/css">
	.st0-21{opacity:0.82;fill:current;}
</style>
<g class="st0-21">
	<path d="M165.5,263.5c2.4,1.8,4.9,3,7.5,3.7c1.3,0.4,2.7,0.6,4.1,0.8c1.4,0.2,2.8,0.3,4.2,0.4l-0.2,0c1.7,0,3.4-0.1,5.2-0.5
		c1.7-0.3,3.5-0.8,5.1-1.6c1.6-0.8,3.1-1.8,4.5-3c1.4-1.2,2.7-2.5,3.9-3.8l1-1.2l1,1.6c0.4,0.6,0.9,1.1,1.5,1.6
		c0.6,0.5,1.3,0.9,2,1.3c1.4,0.8,3,1.5,4.7,2.1c1.6,0.6,3.3,1.1,5,1.6l5.1,1.6l-0.8,0c2.4-0.3,4.8-0.6,7.2-1.1
		c2.4-0.5,4.7-1.1,7.1-2l0.2,0.3c-1.8,1.9-4.1,3.2-6.5,4.3c-2.4,1.1-4.9,1.8-7.4,2.4l-0.3,0.1l-0.5-0.1c-1.8-0.4-3.6-0.8-5.4-1.3
		c-1.8-0.5-3.6-1.2-5.3-2c-1.7-0.8-3.5-1.7-5.1-2.9c-0.8-0.6-1.6-1.3-2.3-2.1c-0.7-0.8-1.2-1.8-1.6-2.9l2,0.5
		c-1.5,1.1-3.1,2.1-4.7,3.1c-1.6,1-3.2,2-4.8,2.9c-1.6,1-3.2,1.9-5,2.7c-1.8,0.8-3.7,1.5-5.6,1.7l0,0l-0.2,0c-1.5,0-3.1-0.2-4.6-0.5
		c-1.5-0.3-3.1-0.8-4.5-1.4c-1.4-0.7-2.8-1.5-4-2.6c-1.2-1.1-2.2-2.3-2.8-3.7L165.5,263.5z"/>
</g>
</svg>
