<?xml version="1.0" encoding="utf-8"?>
<!-- Generator: Adobe Illustrator 25.2.3, SVG Export Plug-In . SVG Version: 6.00 Build 0)  -->
<svg version="1.1" id="레이어_4" xmlns="http://www.w3.org/2000/svg" xmlns:xlink="http://www.w3.org/1999/xlink" x="0px"
	 y="0px" viewBox="0 0 400 400" style="enable-background:new 0 0 400 400;" xml:space="preserve">
<style type="text/css">
	.st0-11{opacity:0.9;fill:current;}
	.st1-11{opacity:0.81;}
</style>
<g class="st0-11">
	<g class="st1-11">
		<path d="M186.2,229.4c0.3,0.3,0.5,0.6,0.7,0.8c0.2,0.2,0.5,0.5,0.7,0.8c0.2,0.3,0.5,0.6,0.7,0.8c0.2,0.3,0.5,0.5,0.7,0.8
			c1,1,2,2,3,2.8c1.1,0.8,2.2,1.5,3.3,2c1.2,0.5,2.4,1,3.7,1.3l-0.3,0c1.5,0.1,3.1,0.1,4.6-0.2c1.5-0.3,3-0.9,4.2-1.8
			c1.2-0.9,2.1-2.2,2.8-3.6c0.6-1.4,1-2.8,1.2-4.3l0.6,1.8c-2-1.1-4.1-2.1-6.2-2.7c-2.1-0.6-4.2-0.9-6.4-1c-2.2-0.1-4.4,0.1-6.6,0.6
			c-0.6,0.1-1.1,0.2-1.7,0.4c-0.6,0.2-1.1,0.3-1.7,0.5l-1.7,0.5C187.4,229.1,186.8,229.2,186.2,229.4z M185.8,229.3
			c0.4-0.4,0.8-0.9,1.4-1.4c0.3-0.3,0.5-0.4,0.8-0.6c0.2-0.2,0.5-0.4,0.7-0.6c1-0.7,2.1-1.4,3.3-1.9c2.3-1.1,4.9-1.8,7.5-2
			c2.7-0.1,5.4,0.3,7.8,1.3c2.4,1,4.7,2.3,6.7,3.9l1,0.8l-0.4,0.9c-1.3,3.3-3.6,6.1-6.3,8c-1.4,1-2.9,1.8-4.4,2.4
			c-1.5,0.7-3.2,1.3-4.9,1.6l-0.3,0c-1.6,0-3.3-0.4-4.8-1.1c-1.5-0.7-2.9-1.7-4-2.9c-1.1-1.2-2-2.5-2.7-4c-0.4-0.7-0.6-1.4-0.9-2.2
			c-0.1-0.4-0.2-0.7-0.3-1.2C185.9,230.1,185.8,229.6,185.8,229.3z"/>
	</g>
	<g>
		<g>
			<polygon points="194.4,238.1 195.2,234.7 195.8,235.5 192.7,234.1 196.1,234 196.5,234 196.7,234.7 197.4,238.1 			"/>
		</g>
		<g>
			<polygon points="202.6,239.3 203.5,235.5 203.6,235 203.8,235 206.3,234.1 204.4,236 204.7,235.5 205.6,239.3 			"/>
		</g>
	</g>
</g>
</svg>
