<svg xmlns="http://www.w3.org/2000/svg" viewBox="0 0 312.89 488.55"><defs><style>.cls-1{fill:#fce2ce;}.cls-2{fill:#4b3628;}.cls-3{fill:#bd8f70;}.cls-4{fill:#9f9fa0;}.cls-5{fill:#e9c6ae;}.cls-6{fill:#040000;}.cls-7{fill:#162142;}.cls-8{fill:#363850;}.cls-9{fill:#d6d7d8;}.cls-10{fill:#5d4434;}.cls-11{fill:#503b2d;}.cls-12{fill:#55392a;}.cls-13{fill:#462c1b;}.cls-14{fill:#6b4e39;}.cls-15{fill:#3c2413;}.cls-16{fill:#613e25;}</style></defs><g id="레이어_2" data-name="레이어 2"><g id="레이어_2-2" data-name="레이어 2"><path class="cls-1" d="M125.17,45.77,72.74,56.33l-5.1,39.15,45.53,29.4a8.37,8.37,0,0,0,7.39.84l26.06-9.48,18.72-14,2-35.06Z"/><path class="cls-2" d="M123.85,0,78.53,6.42a1,1,0,0,0-.58.3L44.81,40.77a.9.9,0,0,0-.26.49l-28,130.86a7.77,7.77,0,0,0,.1,3.65L18,180.6a1,1,0,0,0,1.88.18l18.88-38.27a1,1,0,0,1,.77-.56l52.93-7.38a1,1,0,0,0,.86-.85l3-19.4a1,1,0,0,0-.46-1L68.18,95.66a1,1,0,0,1-.46-1l4.93-37.79a1,1,0,0,1,.8-.86l51.38-10.34a.92.92,0,0,1,.65.09l41.31,21a1,1,0,0,1,.55,1l-2,33.89a1,1,0,0,1-.47.79L138.4,119a1,1,0,0,0-.46.71l-2.05,13.83a1,1,0,0,0,.81,1.14l41.63,8.08a1,1,0,0,1,.64.41l13.18,19a1,1,0,0,0,1.84-.69L177.27,25.65a1.92,1.92,0,0,0-1.12-1.54L124.42.13A.94.94,0,0,0,123.85,0Z"/><polygon class="cls-3" points="117.51 140.6 135.75 134.47 135.75 120.04 116.67 125.95 96.35 113.67 95.27 135 117.51 140.6"/><polygon class="cls-4" points="117.2 140.6 117.2 140.6 94.96 135 78.66 136.09 82.64 156.94 117.2 140.6"/><polygon class="cls-4" points="145.21 158.89 116.36 142.55 117.13 142.55 135.37 136.43 149.98 136.43 145.21 158.89"/><g id="레이어_1-2" data-name="레이어 1"><path class="cls-5" d="M140.24,453.93l5.37,23L160,468s-4.45-16.9-4-17Z"/><polygon class="cls-5" points="49.15 461.92 66.61 463.61 73.74 444.94 55.73 439.57 49.15 461.92"/><path class="cls-6" d="M182,449.93a4.11,4.11,0,0,1-4.26,4.65l-106.07-5-50.16-2.37a4.09,4.09,0,0,1-3.78-5.07L56.62,284.5a1.36,1.36,0,0,0,.06-.29l4.54-26.44a4.09,4.09,0,0,1,4.47-3.38l87.83,9.39a4.09,4.09,0,0,1,3.62,3.52Z"/><path class="cls-7" d="M79,136.09l-35.41,4.13a9.66,9.66,0,0,0-7.66,5.55L0,223.66H0l58,62.43L76.6,267.23,34.38,216.85l18.62-34L67.4,239l-4,17.7,93.33,7.44,10-74.5,39.83,57.87,71.64-16.73-4.23-25.48-55.15,10.21-28.38-65.91a9.69,9.69,0,0,0-6.67-5.59l-34.14-8.08-4.24,21L116.74,140.6l-34,16.34L79,136.09h0"/><path class="cls-8" d="M44.11,473.4l25.23,13.26a3.29,3.29,0,0,0,.62.23l6.4,1.58a2.7,2.7,0,0,0,2.22-.42l3.55-2.52a2.71,2.71,0,0,0,.78-3.58l-6.57-11.27a2.86,2.86,0,0,0-.79-.87L67.2,464a2.66,2.66,0,0,0-1.29-.47L50,462a2.71,2.71,0,0,0-1.58.33l-3.92,2.17a2.75,2.75,0,0,0-1.39,2.1l-.43,4.11A2.74,2.74,0,0,0,44.11,473.4Z"/><path class="cls-8" d="M149.38,486.46l24.34.81h.21l10.56-.61a2.34,2.34,0,0,0,1.88-1.14l1.61-2.71a2.34,2.34,0,0,0-.29-2.78l-3.56-3.88a2.46,2.46,0,0,0-1-.64L160,468c-.66-.21-.61,0-1.19.41l-12,7.47a2.34,2.34,0,0,0-1,2.52l1.45,6.23A2.33,2.33,0,0,0,149.38,486.46Z"/><path class="cls-5" d="M124.49,45.77l-8.1,77.42c-.19,1.82-.6,3,1.12,2.33l19.82-6.15,25.92-16.2a3.26,3.26,0,0,0,1.51-2.55l1.94-33.4L124.49,45.77"/><polygon class="cls-9" points="116.75 140.6 116.75 140.6 145.56 156.01 149.6 135.91 135.75 134.47 116.75 140.6"/><polygon class="cls-9" points="116.75 140.6 116.75 140.6 82.42 155.22 79.11 136.5 95.27 135 116.75 140.6"/><polygon class="cls-9" points="116.75 140.6 113.95 141.94 114.28 162.38 121.43 162.38 121.43 143.1 116.75 140.6"/><polygon class="cls-5" points="273.94 205.28 278.94 196.68 286.08 190.55 289.34 193.3 284.17 198.98 281.75 205.36 289.66 201.15 299.68 191.96 305.3 192.98 309.77 195.98 312.89 200.38 312.77 206.38 303.25 214.87 292.66 220.75 277 223.71 273.94 205.28"/></g><polyline class="cls-10" points="125.17 45.62 72.75 56.17 78.19 6.47 124.15 0 125.17 45.62"/><path class="cls-11" d="M72.55,56.07l-27.77-15a.14.14,0,0,1,0-.23L77.89,6.77a.15.15,0,0,1,.26.12L72.77,56A.15.15,0,0,1,72.55,56.07Z"/><path class="cls-12" d="M67.66,95.19l5.07-38.87a.23.23,0,0,0-.11-.22l-27.76-15a.21.21,0,0,0-.31.14L30,108.22a.21.21,0,0,0,.28.25L67.51,95.36A.22.22,0,0,0,67.66,95.19Z"/><polygon class="cls-13" points="61.87 138.11 95.27 135 96.35 113.67 67.64 95.32 61.87 138.11"/></g><g id="레이어_3" data-name="레이어 3"><path class="cls-14" d="M124.15,0l1,45.62,41.53,21.6,10.21-41.71a1.18,1.18,0,0,0-.65-1.35Z"/><polygon class="cls-15" points="164.66 102.28 164.66 139.48 149.6 135.91 135.75 134.47 135.75 120.04 164.66 102.28"/><path class="cls-16" d="M166.7,67.22l-2,35.06,23.82,14.44-11.2-91a.21.21,0,0,0-.41,0Z"/></g></g></svg>