<svg xmlns="http://www.w3.org/2000/svg" viewBox="0 0 312.89 488.55"><defs><style>.cls-1{fill:#fce2ce;}.cls-2{fill:#4b3628;}.cls-3{fill:#bd8f70;}.cls-4{fill:#9f9fa0;}.cls-5{fill:#e9c6ae;}.cls-6{fill:#040000;}.cls-7{fill:#162142;}.cls-8{fill:#363850;}.cls-9{fill:#d6d7d8;}.cls-10{fill:#5d4434;}.cls-11{fill:#503b2d;}.cls-12{fill:#55392a;}.cls-13{fill:#462c1b;}.cls-14{fill:#6b4e39;}.cls-15{fill:#3c2413;}.cls-16{fill:#613e25;}</style></defs><g id="레이어_2" data-name="레이어 2"><g id="레이어_1-2" data-name="레이어 1"><g id="레이어_2-2" data-name="레이어 2"><g id="레이어_2-2-2" data-name="레이어 2-2"><path class="cls-1" d="M145.55,67.18l2,35.06,18.72,14,26.06,9.48a8.37,8.37,0,0,0,7.39-.84l45.53-29.4-5.1-39.15L187.72,45.77Z"/><path class="cls-2" d="M188.47.13l-51.73,24a1.92,1.92,0,0,0-1.12,1.54L118.9,161.48a1,1,0,0,0,1.84.69l13.18-19a1,1,0,0,1,.64-.41l41.63-8.08a1,1,0,0,0,.81-1.14L175,119.71a1,1,0,0,0-.46-.71L148,102.44a1,1,0,0,1-.47-.79l-2-33.89a1,1,0,0,1,.55-1l41.31-21a1,1,0,0,1,.65-.09L239.44,56a1,1,0,0,1,.8.86l4.93,37.79a1,1,0,0,1-.46,1L217,113.32a1,1,0,0,0-.46,1l3,19.4a1,1,0,0,0,.86.85L273.36,142a1,1,0,0,1,.77.56L293,180.78a1,1,0,0,0,1.88-.18l1.35-4.83a7.77,7.77,0,0,0,.1-3.65l-28-130.86a.91.91,0,0,0-.26-.49L234.94,6.72a1.05,1.05,0,0,0-.58-.3L189,0A1,1,0,0,0,188.47.13Z"/><polygon class="cls-3" points="217.62 135 216.54 113.67 196.22 125.95 177.14 120.04 177.14 134.47 195.38 140.6 217.62 135"/><polygon class="cls-4" points="230.25 156.94 234.23 136.09 217.93 135 195.69 140.6 195.69 140.6 230.25 156.94"/><polygon class="cls-4" points="162.91 136.43 177.52 136.43 195.76 142.55 196.53 142.55 167.68 158.89 162.91 136.43"/><g id="레이어_1-2-2" data-name="레이어 1-2"><path class="cls-5" d="M156.89,451c.45.1-4,17-4,17l14.39,8.93,5.37-23Z"/><polygon class="cls-5" points="257.16 439.57 239.15 444.94 246.28 463.61 263.74 461.92 257.16 439.57"/><path class="cls-6" d="M155.75,267.3a4.1,4.1,0,0,1,3.62-3.52l87.83-9.39a4.09,4.09,0,0,1,4.47,3.38l4.54,26.44a1.36,1.36,0,0,0,.06.29l38.89,157.64a5.32,5.32,0,0,1,.12.8,4.08,4.08,0,0,1-3.9,4.27l-50.16,2.37-106.07,5a3.57,3.57,0,0,1-.73,0,4.11,4.11,0,0,1-3.53-4.62Z"/><path class="cls-7" d="M233.89,136.09h0l-3.74,20.85-34-16.34L167.5,156.93l-4.24-21L129.12,144a9.71,9.71,0,0,0-6.67,5.59L94.07,215.51,38.92,205.3l-4.23,25.48,71.64,16.73,39.83-57.87,10,74.5,93.33-7.44-4-17.7,14.4-56.15,18.62,34-42.22,50.38,18.6,18.86,58-62.43h0L277,145.77a9.66,9.66,0,0,0-7.66-5.55l-35.41-4.13"/><path class="cls-8" d="M270.21,470.71l-.43-4.11a2.76,2.76,0,0,0-1.39-2.1l-3.92-2.17a2.79,2.79,0,0,0-1.58-.33L247,463.53a2.84,2.84,0,0,0-1.29.47l-8.35,5.81a3,3,0,0,0-.79.87L230,482a2.71,2.71,0,0,0,.78,3.58l3.55,2.52a2.66,2.66,0,0,0,2.22.42l6.4-1.58a2.9,2.9,0,0,0,.62-.23l25.23-13.26A2.73,2.73,0,0,0,270.21,470.71Z"/><path class="cls-8" d="M165.63,484.63l1.45-6.23a2.34,2.34,0,0,0-1-2.52l-12-7.47c-.58-.41-.53-.62-1.19-.41l-23.13,7.51a2.53,2.53,0,0,0-1,.64L125.2,480a2.34,2.34,0,0,0-.29,2.78l1.61,2.71a2.33,2.33,0,0,0,1.88,1.14l10.56.61h.21l24.34-.81A2.32,2.32,0,0,0,165.63,484.63Z"/><path class="cls-5" d="M188.4,45.77,146.19,67.22l1.94,33.4a3.25,3.25,0,0,0,1.51,2.55l25.92,16.2,19.82,6.15c1.72.67,1.31-.51,1.12-2.33l-8.1-77.42"/><polygon class="cls-9" points="177.14 134.47 163.29 135.91 167.33 156.01 196.14 140.6 196.14 140.6 177.14 134.47"/><polygon class="cls-9" points="217.62 135 233.78 136.5 230.47 155.22 196.14 140.6 196.14 140.6 217.62 135"/><polygon class="cls-9" points="191.46 143.1 191.46 162.38 198.61 162.38 198.94 141.94 196.14 140.6 191.46 143.1"/><polygon class="cls-5" points="35.89 223.71 20.23 220.75 9.64 214.87 0.12 206.38 0 200.38 3.12 195.98 7.59 192.98 13.21 191.96 23.23 201.15 31.14 205.36 28.72 198.98 23.55 193.3 26.81 190.55 33.95 196.68 38.95 205.28 35.89 223.71"/></g><polyline class="cls-10" points="187.72 45.62 188.74 0 234.7 6.47 240.14 56.17 187.72 45.62"/><path class="cls-11" d="M240.32,56.09a.16.16,0,0,1-.2-.09L234.74,6.89a.15.15,0,0,1,0-.13.15.15,0,0,1,.21,0l33.11,34.07,0,0a.14.14,0,0,1,0,.19l-27.77,15S240.32,56.08,240.32,56.09Z"/><path class="cls-12" d="M245.38,95.36l37.23,13.11a.2.2,0,0,0,.13,0,.21.21,0,0,0,.15-.26l-14.55-67a.14.14,0,0,0,0-.06.22.22,0,0,0-.29-.08l-27.76,15a.23.23,0,0,0-.11.22l5.07,38.87A.2.2,0,0,0,245.38,95.36Z"/><polygon class="cls-13" points="245.25 95.32 216.54 113.67 217.62 135 251.02 138.11 245.25 95.32"/></g><g id="레이어_3" data-name="레이어 3"><path class="cls-14" d="M136.65,24.16a1.19,1.19,0,0,0-.65,1.35l10.21,41.71,41.53-21.6,1-45.62Z"/><polygon class="cls-15" points="177.14 120.04 177.14 134.47 163.29 135.91 148.23 139.48 148.23 102.28 177.14 120.04"/><path class="cls-16" d="M136,25.72a.22.22,0,0,0-.16-.16.22.22,0,0,0-.25.16l-11.2,91,23.82-14.44-2-35.06Z"/></g></g></g></g></svg>