<svg xmlns="http://www.w3.org/2000/svg" viewBox="0 0 431.86 870.75"><defs><style>.cls-1{fill:#fffcf5;}.cls-1,.cls-2,.cls-3,.cls-4,.cls-5,.cls-6,.cls-7{stroke:#000;stroke-width:0.5px;}.cls-1,.cls-10,.cls-11,.cls-2,.cls-3,.cls-4,.cls-5,.cls-6,.cls-7,.cls-8,.cls-9{stroke-miterlimit:10;}.cls-2{fill:#f4d07d;}.cls-3{fill:#c69e59;}.cls-4{fill:#77614d;}.cls-5{fill:#ffd97b;}.cls-6{fill:#998261;}.cls-7{fill:#d8eae6;}.cls-10,.cls-11,.cls-8,.cls-9{fill:none;}.cls-8{stroke:#fffcf5;}.cls-9{stroke:#ffd97b;}.cls-10{stroke:#f4d07d;}.cls-11{stroke:#c69e59;}</style></defs><g id="레이어_2" data-name="레이어 2"><g id="레이어_1-2" data-name="레이어 1"><g id="레이어_2-2" data-name="레이어 2"><g id="레이어_1-2-2" data-name="레이어 1-2"><g id="레이어_2-2-2" data-name="레이어 2-2"><g id="레이어_1-2-2-2" data-name="레이어 1-2-2"><polygon class="cls-1" points="35.6 253.34 35.6 403.34 157.6 464.34 154.6 757.34 373.6 870.34 377.6 397.34 35.6 253.34"/><polygon class="cls-2" points="0.6 456.34 91.6 502.34 92.6 742.34 124.6 760.34 124.6 478.34 0.6 418.34 0.6 456.34"/><polygon class="cls-3" points="157.6 464.34 154.6 742.34 124.6 760.34 124.6 478.34 157.6 464.34"/><polygon class="cls-4" points="92.6 742.34 92.6 755.34 124.6 775.34 124.6 760.34 92.6 742.34"/><polygon class="cls-4" points="124.6 760.34 154.6 742.34 154.6 757.34 124.6 775.34 124.6 760.34"/><polygon class="cls-4" points="154.6 742.34 154.6 757.34 372.6 869.34 372.6 854.34 154.6 742.34"/><polygon class="cls-5" points="377.6 397.34 377.6 372.34 35.6 230.34 35.6 253.34 377.6 397.34"/><polygon class="cls-1" points="377.6 372.34 381.6 108.34 35.6 0.34 35.6 230.34 377.6 372.34"/><polygon class="cls-3" points="0.6 418.34 124.6 478.34 157.6 464.34 35.6 403.34 0.6 418.34"/><polygon class="cls-6" points="194.35 413.84 194.35 626.77 311.37 684.96 311.37 470.11 194.35 413.84"/><polygon class="cls-1" points="381.6 108.34 431.6 97.34 421.6 833.34 372.6 869.34 381.6 108.34"/><polygon class="cls-4" points="372.6 854.34 421.78 820.09 421.6 833.34 372.6 869.34 372.6 854.34"/><polygon class="cls-7" points="206.73 443.77 206.73 610.27 298.23 655.77 298.23 487.77 206.73 443.77"/><polygon class="cls-5" points="377.6 372.34 428.13 352.88 428.6 375.34 377.6 397.34 377.6 372.34"/></g></g></g></g><line class="cls-8" x1="35.6" y1="0.34" x2="35.6" y2="230.34"/><line class="cls-8" x1="35.6" y1="253.34" x2="35.6" y2="403.34"/><line class="cls-9" x1="35.6" y1="230.86" x2="35.6" y2="252.84"/><line class="cls-10" x1="0.6" y1="455.76" x2="0.6" y2="419.01"/><line class="cls-11" x1="35.07" y1="403.57" x2="0.6" y2="418.34"/></g></g></svg>