<svg xmlns="http://www.w3.org/2000/svg" viewBox="0 0 317.86 781.73"><defs><style>.cls-1{fill:#fffcf5;}.cls-1,.cls-2,.cls-3,.cls-4,.cls-5,.cls-6,.cls-7{stroke:#000;stroke-width:0.5px;}.cls-1,.cls-10,.cls-11,.cls-2,.cls-3,.cls-4,.cls-5,.cls-6,.cls-7,.cls-8,.cls-9{stroke-miterlimit:10;}.cls-2{fill:#c69e59;}.cls-3{fill:#77614d;}.cls-4{fill:#ffd97b;}.cls-5{fill:#f4d07d;}.cls-6{fill:#998261;}.cls-7{fill:#d8eae6;}.cls-10,.cls-11,.cls-8,.cls-9{fill:none;}.cls-8{stroke:#fffcf5;}.cls-9{stroke:#ffd97b;}.cls-10{stroke:#c69e59;}.cls-11{stroke:#f4d07d;}</style></defs><g id="레이어_2" data-name="레이어 2"><g id="레이어_1-2" data-name="레이어 1"><g id="레이어_2-2" data-name="레이어 2"><g id="레이어_1-2-2" data-name="레이어 1-2"><g id="레이어_2-2-2" data-name="레이어 2-2"><g id="레이어_1-2-2-2" data-name="레이어 1-2-2"><polygon class="cls-1" points="166.25 462.34 166.25 702.34 0.25 617.34 0.25 220.34 317.25 352.34 317.25 502.34 196.25 446.34 166.25 462.34"/><polygon class="cls-2" points="198.25 513.34 224.25 511.34 224.25 758.34 198.25 764.34 198.25 513.34"/><polygon class="cls-3" points="224.25 754.34 224.25 770.34 198.25 781.34 198.25 764.34 224.25 754.34"/><polygon class="cls-3" points="198.25 764.34 166.25 750.34 166.25 766.34 198.25 781.34 198.25 764.34"/><polygon class="cls-3" points="166.25 702.34 166.25 716.34 0.25 631.34 0.25 617.34 166.25 702.34"/><polygon class="cls-4" points="317.25 352.34 317.25 329.34 0.25 198.34 0.25 220.34 317.25 352.34"/><polygon class="cls-1" points="0.25 198.34 0.25 0.34 317.25 99.34 317.25 329.34 0.25 198.34"/><polygon class="cls-5" points="166.68 716.84 166.25 750.34 198.25 764.34 198.25 514.34 282.25 555.34 282.25 517.34 166.25 462.34 166.68 716.84"/><polygon class="cls-2" points="166.25 462.34 195.25 445.34 317.25 502.34 282.25 517.34 166.25 462.34"/><polygon class="cls-6" points="51.25 335.34 51.25 545.34 143.25 589.34 142.75 379.8 51.25 335.34"/><polygon class="cls-7" points="62.25 358.34 62.25 533.34 131.25 566.34 130.75 393.34 62.25 358.34"/></g></g></g></g><line class="cls-8" x1="317.25" y1="99.34" x2="317.25" y2="329.34"/><line class="cls-8" x1="317.25" y1="352.34" x2="317.25" y2="501.76"/><line class="cls-9" x1="317.25" y1="330.14" x2="317.25" y2="351.64"/><line class="cls-10" x1="282.25" y1="517.06" x2="316.78" y2="502.54"/><line class="cls-11" x1="282.25" y1="517.95" x2="282.25" y2="554.61"/></g></g></svg>