<svg xmlns="http://www.w3.org/2000/svg" viewBox="0 0 431.53 570.63"><defs><style>.cls-1{fill:#992623;}.cls-1,.cls-14,.cls-16,.cls-17,.cls-2,.cls-21,.cls-6,.cls-9{stroke:#231815;}.cls-1,.cls-10,.cls-13,.cls-14,.cls-16,.cls-17,.cls-18,.cls-19,.cls-2,.cls-20,.cls-21,.cls-6,.cls-9{stroke-miterlimit:10;}.cls-2,.cls-4{fill:#932523;}.cls-3{fill:#fff;}.cls-5{fill:#a12524;}.cls-6,.cls-7{fill:#d5342d;}.cls-8{fill:#c9352d;}.cls-10,.cls-18,.cls-19,.cls-9{fill:none;}.cls-10,.cls-18{stroke:#fff;}.cls-11{fill:#ba3226;}.cls-12,.cls-15{fill:#231815;}.cls-13{fill:#d65150;stroke:#0a0708;}.cls-14{fill:#d6452d;}.cls-15{font-size:144.7px;font-family:H2hdrM, HYHeadLine-Medium;}.cls-16{fill:#413f3f;}.cls-17{fill:#4c4c4c;}.cls-18{stroke-width:1.2px;}.cls-19,.cls-20{stroke:#040000;}.cls-20{fill:#444;}.cls-21{fill:#5d5e5e;}</style></defs><g id="레이어_2" data-name="레이어 2"><g id="레이어_1-2" data-name="레이어 1"><path class="cls-1" d="M191.09,160.08.5,161.21v-1.13C.5,72.54,86.54.5,191.09.5,294.75.5,380.38,71.32,381.66,158.11Z"/><rect class="cls-2" x="0.5" y="155.98" width="381.16" height="329.41"/><path class="cls-3" d="M275,154.16A154.16,154.16,0,0,1,233.67,149c-3.11-.83-4.44,4-1.33,4.82A159.53,159.53,0,0,0,275,159.16c3.22,0,3.22-5,0-5Z"/><path class="cls-3" d="M244.22,153.58a72.39,72.39,0,0,1-22.13-.7c-7.43-1.31-14.81-2.83-22.38-1.72a2.47,2.47,0,0,0-1.79,2.74,2.53,2.53,0,0,0,2.46,2.17,77.41,77.41,0,0,1,15.54,2.82v-4.82c-7.57,1.4-15.19-1.45-22.2-4l-1.33,4.82,13.11,3.2,6.44,1.56c1.84.45,3.82.71,5.37,1.85l-.5-3.92a3.09,3.09,0,0,1-2.28,1,24.69,24.69,0,0,1-4.63,0,36.19,36.19,0,0,1-8.14-1.89c-5.46-1.79-10.91-4-16.76-3.69-3.21.15-3.22,5.15,0,5,6.12-.29,11.76,2.47,17.51,4.16a34.25,34.25,0,0,0,9.48,1.5c2.85,0,6.38-.14,8.35-2.52a2.54,2.54,0,0,0-.5-3.92,15.23,15.23,0,0,0-5.62-2.13l-6.91-1.68-13.59-3.31c-3.16-.77-4.33,3.74-1.33,4.82,8,2.89,16.28,5.57,24.86,4,2.52-.46,2.23-4.18,0-4.82a84.06,84.06,0,0,0-16.87-3L201,156c7.07-1,14.2.8,21.13,2a74.12,74.12,0,0,0,22.05.63,2.57,2.57,0,0,0,2.5-2.5,2.51,2.51,0,0,0-2.5-2.5Z"/><path class="cls-3" d="M184.62,148.17c-14.29.25-28.44,1.13-42.69,2.1-14.44,1-28.81-.54-43.15-2.16-4-.46-7.5,3.77-7.5,7.5,0,4.43,3.46,7,7.5,7.5,14.34,1.62,28.7,3.12,43.15,2.16,14.25-1,28.4-1.85,42.69-2.1,9.64-.17,9.67-15.17,0-15Z"/><path class="cls-3" d="M264.77,162.06c15.06,2.49,30.21,4.37,45.43,5.51,7.29.55,14.62,1,21.93,1.14,6.45.1,13-.66,18.42-4.4,7.91-5.43.41-18.44-7.57-12.95-4.28,2.94-9.36,2.42-14.34,2.24q-10.2-.36-20.38-1.17-19.86-1.58-39.5-4.83c-9.44-1.56-13.5,12.89-4,14.46Z"/><path class="cls-3" d="M330.23,164q20.25-.92,40.52-.73c9.65.08,9.66-14.92,0-15q-20.26-.18-40.52.73c-9.61.44-9.66,15.44,0,15Z"/><path class="cls-4" d="M102.13,149.33c-27-4.47-54.11-4.31-81.38-4.7-9.65-.14-9.66,14.86,0,15,25.86.37,51.8-.07,77.4,4.17,9.44,1.56,13.5-12.89,4-14.47Z"/><path class="cls-3" d="M11.5,164.76c9.65,0,9.67-15,0-15s-9.67,15,0,15Z"/><path class="cls-5" d="M8.88,163.51c9.65,0,9.66-15,0-15s-9.67,15,0,15Z"/><path class="cls-3" d="M3.75,158.89c3.22,0,3.22-5,0-5s-3.22,5,0,5Z"/><path class="cls-3" d="M3.75,158.51c3.22,0,3.22-5,0-5s-3.22,5,0,5Z"/><path class="cls-5" d="M3.5,158.51c3.22,0,3.22-5,0-5s-3.22,5,0,5Z"/><path class="cls-3" d="M378.34,158.34c3.21,0,3.22-5,0-5s-3.23,5,0,5Z"/><path class="cls-6" d="M223,184.4,32.41,185.53c0-.38,0-.75,0-1.13,0-87.54,86-159.58,190.59-159.58,103.67,0,189.3,70.82,190.58,157.61Z"/><rect class="cls-6" x="32.4" y="180.3" width="381.16" height="329.41"/><path class="cls-3" d="M306.9,178.48a154.21,154.21,0,0,1-41.33-5.21c-3.11-.83-4.44,4-1.32,4.82a159.5,159.5,0,0,0,42.65,5.39c3.22,0,3.23-5,0-5Z"/><path class="cls-3" d="M276.13,177.9a72.68,72.68,0,0,1-22.13-.7c-7.44-1.31-14.82-2.83-22.38-1.72a2.45,2.45,0,0,0-1.79,2.74,2.53,2.53,0,0,0,2.45,2.17,77.41,77.41,0,0,1,15.54,2.82v-4.82c-7.56,1.4-15.19-1.45-22.2-4l-1.32,4.82,13.11,3.19,6.43,1.57c1.84.45,3.82.71,5.38,1.85l-.51-3.92a3.07,3.07,0,0,1-2.27,1,24,24,0,0,1-4.64,0,35.76,35.76,0,0,1-8.14-1.88c-5.46-1.79-10.91-4-16.76-3.69-3.2.15-3.22,5.15,0,5,6.12-.29,11.76,2.47,17.51,4.16a34.25,34.25,0,0,0,9.48,1.5c2.85,0,6.38-.14,8.36-2.52a2.55,2.55,0,0,0-.51-3.92,15.17,15.17,0,0,0-5.62-2.13l-6.91-1.68-13.59-3.31c-3.16-.77-4.32,3.74-1.32,4.82,8,2.89,16.27,5.56,24.85,4,2.53-.46,2.23-4.18,0-4.82a83.94,83.94,0,0,0-16.87-3l.67,4.91c7.07-1,14.2.79,21.13,2a74.1,74.1,0,0,0,22,.63,2.59,2.59,0,0,0,2.5-2.5,2.51,2.51,0,0,0-2.5-2.5Z"/><path class="cls-3" d="M216.53,172.49c-14.29.25-28.45,1.13-42.7,2.09-14.44,1-28.81-.53-43.15-2.15-4-.46-7.5,3.77-7.5,7.5,0,4.43,3.46,7,7.5,7.5,14.35,1.62,28.71,3.12,43.15,2.15,14.26-1,28.41-1.84,42.7-2.09,9.64-.17,9.67-15.17,0-15Z"/><path class="cls-7" d="M296.68,186.38c15.05,2.49,30.2,4.37,45.42,5.51,7.29.55,14.62,1,21.93,1.14,6.46.09,13-.67,18.42-4.4,7.91-5.43.42-18.44-7.57-13-4.28,2.94-9.35,2.43-14.33,2.25q-10.21-.36-20.39-1.18-19.85-1.56-39.5-4.82c-9.44-1.56-13.5,12.89-4,14.46Z"/><path class="cls-7" d="M362.14,188.34q20.24-.92,40.51-.74c9.65.09,9.66-14.91,0-15q-20.26-.16-40.51.74c-9.62.44-9.67,15.44,0,15Z"/><path class="cls-7" d="M134,173.65c-27-4.47-54.12-4.31-81.38-4.7-9.66-.14-9.66,14.86,0,15,25.86.37,51.8-.07,77.39,4.17,9.44,1.56,13.5-12.89,4-14.47Z"/><path class="cls-8" d="M43.4,189.08c9.66,0,9.67-15,0-15s-9.66,15,0,15Z"/><path class="cls-7" d="M40.78,189.93c9.65,0,9.67-15,0-15s-9.67,15,0,15Z"/><path class="cls-3" d="M35.65,183.21c3.22,0,3.23-5,0-5s-3.22,5,0,5Z"/><path class="cls-3" d="M35.65,182.83c3.22,0,3.23-5,0-5s-3.22,5,0,5Z"/><path class="cls-8" d="M35.4,182.83c3.22,0,3.23-5,0-5s-3.22,5,0,5Z"/><path class="cls-7" d="M410.24,182.66c3.22,0,3.22-5,0-5s-3.22,5,0,5Z"/><path class="cls-9" d="M32.4,509.71.5,485.39Z"/><path class="cls-3" d="M22.48,488.24l.23-.11-.6.26a5,5,0,0,1,1.31-.36l-.67.09.16,0a2,2,0,0,0,1-.21,2,2,0,0,0,.8-.52,2.83,2.83,0,0,0,.74-1.77l-.09-.66a2.5,2.5,0,0,0-.65-1.11l-.5-.39a2.53,2.53,0,0,0-1.26-.34,8.72,8.72,0,0,0-1.53.25,8.77,8.77,0,0,0-1.42.57,1.88,1.88,0,0,0-.7.64,1.94,1.94,0,0,0-.45.85,2,2,0,0,0,0,1,2,2,0,0,0,.3.93l.39.51a2.48,2.48,0,0,0,1.11.64l.66.09a2.53,2.53,0,0,0,1.26-.34Z"/><path class="cls-3" d="M28.81,487.92c3.22,0,3.23-5,0-5s-3.22,5,0,5Z"/><path class="cls-3" d="M29.45,486c.57,0,1.63-.2,1.92-.77s-.24-.77-.76-.77-1.63.2-1.92.77.25.77.76.77Z"/><path class="cls-3" d="M1.81,485.86s0-5,0-5,0,5,0,5Z"/><path class="cls-3" d="M31.88,482.73a8.81,8.81,0,0,0-.89,0s0,.84,0,.73c0,.59,0,1.18,0,1.77,0,.18,0,2.5,0,2.5a8.81,8.81,0,0,1,.89,0s0-.85,0-.73c0-.59,0-1.18,0-1.77s0-1.18,0-1.77c0-.07,0-.73,0-.73Z"/><path class="cls-3" d="M2.13,485.39c.2,0,.39.05.59.09,0-.07,0-.15,0-.22v-.52c0-.58,0-1.17,0-1.76s0-1.18,0-1.77v-.39c0-.12,0-.23,0-.34-.2,0-.39-.07-.59-.09,0,0,0,.85,0,.73,0,.59,0,1.18,0,1.77s0,1.18,0,1.76v.4a2,2,0,0,0,0,.34Z"/><path class="cls-3" d="M2.33,485.74l.61.1a1.62,1.62,0,0,0,0-.22c0-.17,0-.34,0-.51v-3.93c0-.11,0-.23,0-.34l-.61-.1a1.48,1.48,0,0,0,0,.21c0,.17,0,.35,0,.52,0,.59,0,1.18,0,1.77s0,1.18,0,1.76v.4a2,2,0,0,0,0,.34Z"/><path class="cls-3" d="M1.82,485.35l.78.1s0-.84,0-.73V480.8c0-.12,0-.23,0-.35l-.78-.1s0,.85,0,.73c0,.59,0,1.18,0,1.77s0,1.18,0,1.77V485c0,.11,0,.22,0,.34Z"/><path class="cls-3" d="M1.51,485.2l1.08,0s0-2.31,0-2.5c0-.59,0-1.18,0-1.77,0-.07,0-.73,0-.73l-1.08,0s0,2.31,0,2.5c0,.59,0,1.18,0,1.77,0,.07,0,.73,0,.73Z"/><line class="cls-10" x1="3.81" y1="486.61" x2="1.32" y2="484.72"/><line class="cls-10" x1="2.21" y1="484.52" x2="4.55" y2="486.21"/><path class="cls-3" d="M1,485.09a.76.76,0,0,0,.3.05,1.48,1.48,0,0,0,0-.21c0-.18,0-.35,0-.52,0-.59,0-1.18,0-1.77s0-1.18,0-1.77c0-.07,0-.73,0-.73a.76.76,0,0,1-.3-.05,1.7,1.7,0,0,0,0,.22c0,.17,0,.34,0,.52,0,.58,0,1.17,0,1.76s0,1.18,0,1.77v.39c0,.12,0,.23,0,.34Z"/><line class="cls-10" x1="2.13" y1="485.02" x2="3.28" y2="485.89"/><path class="cls-11" d="M33,184.36s0-5,0-5,0,5,0,5Z"/><polyline class="cls-4" points="32.4 509.71 32.4 481.76 0.5 467.39 0.5 485.39 31.88 509.3"/><path class="cls-12" d="M16.59,160.76c9.66,0,9.67-15,0-15s-9.66,15,0,15Z"/><path class="cls-4" d="M9.72,164.32c9.65,0,9.67-15,0-15s-9.67,15,0,15Z"/><path class="cls-4" d="M11.31,166.67c9.65,0,9.67-15,0-15s-9.67,15,0,15Z"/><path class="cls-4" d="M15.38,166.45c9.65,0,9.66-15,0-15s-9.67,15,0,15Z"/><path class="cls-4" d="M19.22,164c9.65,0,9.67-15,0-15s-9.67,15,0,15Z"/><path class="cls-4" d="M17.94,159.07c9.65,0,9.67-15,0-15s-9.67,15,0,15Z"/><path class="cls-4" d="M15.81,158.73c9.65,0,9.67-15,0-15s-9.67,15,0,15Z"/><path class="cls-4" d="M13.78,159.2c9.65,0,9.67-15,0-15s-9.67,15,0,15Z"/><path class="cls-4" d="M8.84,160.29c9.66,0,9.67-15,0-15s-9.66,15,0,15Z"/><path class="cls-4" d="M8.72,164.67c9.65,0,9.67-15,0-15s-9.67,15,0,15Z"/><path class="cls-4" d="M8.56,164.07c9.65,0,9.67-15,0-15s-9.67,15,0,15Z"/><path class="cls-7" d="M50.23,189.5c9.66,0,9.67-15,0-15s-9.66,15,0,15Z"/><path class="cls-7" d="M44,185.75c9.65,0,9.67-15,0-15s-9.67,15,0,15Z"/><path class="cls-7" d="M45.64,193.48c9.65,0,9.67-15,0-15s-9.67,15,0,15Z"/><path class="cls-7" d="M42,188.65c9.66,0,9.67-15,0-15s-9.66,15,0,15Z"/><path class="cls-7" d="M41.42,187.72c9.65,0,9.67-15,0-15s-9.67,15,0,15Z"/><path class="cls-7" d="M41.33,188.61c9.65,0,9.67-15,0-15s-9.67,15,0,15Z"/><path class="cls-7" d="M40.77,188.89c9.65,0,9.66-15,0-15s-9.67,15,0,15Z"/><path class="cls-7" d="M40.81,187.9c9.65,0,9.67-15,0-15s-9.67,15,0,15Z"/><path class="cls-7" d="M40.58,187.62c9.65,0,9.67-15,0-15s-9.67,15,0,15Z"/></g><g id="레이어_3" data-name="레이어 3"><rect class="cls-13" x="89.65" y="121.31" width="269.72" height="108.75"/><rect class="cls-14" x="66.13" y="266.14" width="322.88" height="209.25"/><text class="cls-15" transform="translate(82.28 406.82) scale(0.83 1)">POST</text></g><g id="레이어_4" data-name="레이어 4"><rect class="cls-14" x="195.73" y="431.51" width="80.4" height="29.25"/></g><g id="레이어_6" data-name="레이어 6"><rect class="cls-16" x="1.73" y="531.64" width="414.17" height="27"/><path class="cls-9" d="M15.9,542.61l-14.17-11Z"/><g id="레이어_5" data-name="레이어 5"><rect class="cls-9" x="191.63" y="509.71" width="47.18" height="32.9"/><path class="cls-3" d="M209.36,533.26a204.91,204.91,0,0,0,30.29,4.19c-.06,0,.15-5,0-5a204.91,204.91,0,0,1-30.29-4.19c.31.07-.38,4.92,0,5Z"/><path class="cls-3" d="M256.24,529.15c-3.49.23-6.75-1-10.11-1.67-3.6-.76-7.2-.27-10.83-.43s-7.49-.51-11.26-.32-7.54.66-11.29,1.13c-.24,0,.17,5,0,5,3.75-.47,7.51-1,11.29-1.13s7.49.14,11.26.32,7.23-.33,10.83.43c3.36.7,6.62,1.9,10.11,1.67.14,0-.07-5,0-5Z"/><path class="cls-3" d="M233.66,533.33a22.88,22.88,0,0,1,11.15,1.74s0-.84,0-.73c0-.59,0-1.18,0-1.77s0-1.18,0-1.76a3,3,0,0,0,0-.74,22.88,22.88,0,0,0-11.15-1.74c-.19,0,.12,5,0,5Z"/><path class="cls-3" d="M248.08,530.9q-13.2-1.27-26.31-3.3c.22,0-.29,4.95,0,5q13.11,2,26.31,3.3c-.12,0,.19-5,0-5Z"/><path class="cls-3" d="M210.41,534.14q6.22-.18,12.47,0s.08-5,0-5q-6.24-.18-12.47,0c-.09,0,0,5,0,5Z"/><rect class="cls-17" x="208.25" y="509.71" width="48.95" height="32.9"/></g><path class="cls-3" d="M192.22,533.89c1.2-.07,2.41-.14,3.62-.09s2.38.34,3.59.37c2.57.06,5,.66,7.63.51.13,0-.06-5,0-5-2.58.15-5.06-.45-7.63-.51-1.16,0-2.3-.3-3.46-.36a33.53,33.53,0,0,0-3.75.08c-.14,0,.06,5,0,5Z"/><path class="cls-3" d="M207.69,529.4l-1.31.12s0,.85,0,.73c0,.59,0,1.18,0,1.77s0,1.18,0,1.77c0,.07,0,.73,0,.73l1.31-.12s0-.84,0-.73c0-.59,0-1.18,0-1.77s0-1.18,0-1.76c0-.08,0-.74,0-.74Z"/><path class="cls-3" d="M191,537.22a14.28,14.28,0,0,1,3.68.52s0-.85,0-.73c0-.59,0-1.18,0-1.77s0-1.18,0-1.77a3.42,3.42,0,0,0,0-.73,14.28,14.28,0,0,0-3.68-.52s-.06,5,0,5Z"/><path class="cls-3" d="M189.56,539.09a27.43,27.43,0,0,1,5.63.9s0-.85,0-.73c0-.59,0-1.18,0-1.77s0-1.18,0-1.77a4.23,4.23,0,0,0,0-.73,27.43,27.43,0,0,0-5.63-.9s0,2.31,0,2.5,0,2.49,0,2.5Z"/><path class="cls-3" d="M189.47,541q2.75.45,5.47,1s0-.85,0-.73v-3.53c0-.08,0-.73,0-.74q-2.73-.53-5.47-1s0,2.31,0,2.5v1.77a5.61,5.61,0,0,0,0,.73Z"/><path class="cls-3" d="M192.22,537.23s0-5,0-5,0,5,0,5Z"/><path class="cls-3" d="M192.25,536.85l-1.53.13s0,.84,0,.73v3.53c0,.08,0,.74,0,.74l1.53-.13s0-.85,0-.74v-3.53c0-.07,0-.73,0-.73Z"/><path class="cls-3" d="M191,542.06c.47,0,.94,0,1.41,0,0,0,0-2.32,0-2.5v-1.77c0-.07,0-.73,0-.73-.47,0-.94,0-1.41,0,0,0,0,.85,0,.73v3.54c0,.07,0,.73,0,.73Z"/><path class="cls-3" d="M208.81,544.74a55,55,0,0,1,6.16.35s0-2.31,0-2.5.05-2.49,0-2.5a55,55,0,0,0-6.16-.35s0,5,0,5Z"/><path class="cls-3" d="M213.76,545.07a60.12,60.12,0,0,0,10.46,1,40,40,0,0,1,10.31,1.44c-.06,0,0-2.3,0-2.5a13.7,13.7,0,0,0,0-2.5A39.9,39.9,0,0,0,224.22,541a60.12,60.12,0,0,1-10.46-1c.26,0-.33,4.94,0,5Z"/><path class="cls-3" d="M230.84,545.39a68.61,68.61,0,0,1,8.36.23c1.39.12,2.78.29,4.16.49a9.93,9.93,0,0,0,3.84.08,17.05,17.05,0,0,0,0-2.5c0-.2-.11-2.48,0-2.5a9.74,9.74,0,0,1-3.84-.08c-1.38-.2-2.77-.37-4.16-.49a68.61,68.61,0,0,0-8.36-.23c-.08,0,0,5,0,5Z"/><path class="cls-3" d="M256.06,540.26c-3.74-.18-7.5-.22-11.25-.14-.07,0,0,5,0,5,3.75-.08,7.51,0,11.25.14,0,0,.12-5,0-5Z"/><path class="cls-3" d="M256.34,544.82s0-5,0-5,0,5,0,5Z"/><path class="cls-3" d="M256.64,540.2l-.75,0s0,2.32,0,2.5c0,.59,0,1.18,0,1.77,0,.07,0,.73,0,.73l.75,0s0-2.31,0-2.5c0-.59,0-1.18,0-1.77,0-.07,0-.73,0-.73Z"/><path class="cls-3" d="M256.66,545.19s0-5,0-5,0,5,0,5Z"/><path class="cls-12" d="M207.8,535.57s0-5,0-5,0,5,0,5Z"/><path class="cls-12" d="M207.78,536.55s0-5,0-5,0,5,0,5Z"/><path class="cls-12" d="M207.76,535.43s0-5,0-5,0,5,0,5Z"/><path class="cls-12" d="M192.08,531.23s0-5,0-5,0,5,0,5Z"/><path class="cls-12" d="M192.13,531.23s0-5,0-5,0,5,0,5Z"/><path class="cls-12" d="M192.1,530.72s0-5,0-5,0,5,0,5Z"/><path class="cls-12" d="M192.15,530.36s0-5,0-5,0,5,0,5Z"/><path class="cls-12" d="M192.15,529.45s0-5,0-5,0,5,0,5Z"/><path class="cls-12" d="M192.15,528.49s0-5,0-5,0,5,0,5Z"/><path class="cls-12" d="M192.08,527.57s0-5,0-5,0,5,0,5Z"/><path class="cls-12" d="M192.08,527s0-5,0-5,0,5,0,5Z"/><path class="cls-12" d="M192.08,526.26s0-5,0-5,0,5,0,5Z"/><polyline class="cls-16" points="208.25 542.61 191.49 531.28 1.73 531.64 15.9 542.61 208.25 542.61"/><line class="cls-10" x1="415.9" y1="533.04" x2="415.9" y2="542.07"/><path class="cls-3" d="M416.48,533c-.67-.1-1.34-.19-2-.25,0,0,0,.85,0,.73,0,.59,0,1.18,0,1.77s0,1.18,0,1.76a5.71,5.71,0,0,0,0,.74c.67.06,1.34.15,2,.25,0,0,0-.85,0-.73v-3.54a5.55,5.55,0,0,0,0-.73Z"/><path class="cls-3" d="M415,541.35a3.46,3.46,0,0,1,1.24.06l1.29.2s0-.85,0-.73c0-.59,0-1.18,0-1.77s0-1.18,0-1.77a5.75,5.75,0,0,0,0-.73l-1.29-.2a3.46,3.46,0,0,0-1.24-.06s0,.84,0,.73c0,.59,0,1.18,0,1.77s0,1.18,0,1.77c0,.07,0,.73,0,.73Z"/><path class="cls-3" d="M416.71,537a4.62,4.62,0,0,1-1.67-.35c0,.07,0,.15,0,.22v.51c0,.59,0,1.18,0,1.77s0,1.18,0,1.77v.39c0,.12,0,.23,0,.34a4.62,4.62,0,0,0,1.67.35s0-2.31,0-2.5c0-.59,0-1.18,0-1.77,0-.07,0-.73,0-.73Z"/><path class="cls-3" d="M415.5,537.06a.55.55,0,0,0-.18,0,1.48,1.48,0,0,0,0,.21c0,.18,0,.35,0,.52v3.93c0,.11,0,.22,0,.34a.55.55,0,0,1,.18,0c0-.07,0-.15,0-.22v-.52c0-.58,0-1.17,0-1.76s0-1.18,0-1.77v-.39c0-.12,0-.23,0-.34Z"/><path class="cls-3" d="M415.37,542.12s0-5,0-5,0,5,0,5Z"/><path class="cls-3" d="M415.4,542.12s0-5,0-5,0,5,0,5Z"/><path class="cls-3" d="M410.53,532.24a.64.64,0,0,1,.18.1l.17.15.16.14a1.09,1.09,0,0,1,.13.17.86.86,0,0,0,.26.24.57.57,0,0,1,.23.23h5a.51.51,0,0,0-.23-.23.85.85,0,0,1-.26-.24l-.12-.16-.16-.14-.18-.16a.64.64,0,0,0-.18-.1h-5Z"/><path class="cls-3" d="M415.91,532.47h-5a.68.68,0,0,1,.2.07,1.67,1.67,0,0,1,.16.12.88.88,0,0,0,.12.15,1,1,0,0,0,.17.1h5a.69.69,0,0,1-.2-.13.36.36,0,0,1-.07-.1l-.09-.08a.94.94,0,0,0-.22-.12H414.7c-1,0-2,0-3,0-.21,0-.43,0-.65,0h4.89Z"/><path class="cls-3" d="M411.12,532.58a.75.75,0,0,1,.26.27.51.51,0,0,0,.28.24h4.66a2,2,0,0,0,.34,0,.51.51,0,0,1-.28-.24.75.75,0,0,0-.26-.27h-4.66l-.34,0Z"/><path class="cls-3" d="M410.75,532.38a.92.92,0,0,1,.24.13l.24.17a2.21,2.21,0,0,1,.43.37h5a2.21,2.21,0,0,0-.43-.37,1.88,1.88,0,0,0-.23-.16.89.89,0,0,0-.25-.14h-5Z"/><path class="cls-3" d="M414.06,533.75c.55,0,1.63-.21,1.92-.76s-.25-.72-.75-.72-1.64.21-1.92.76.25.72.75.72Z"/><path class="cls-3" d="M414.82,534.2c1.63,0,2.25-2.05.28-2.05-1.63,0-2.25,2.05-.28,2.05Z"/><path class="cls-3" d="M414.1,533.81a3.33,3.33,0,0,0,2-.54c.36-.32.47-.71-.19-.71a3.28,3.28,0,0,0-2,.55c-.36.31-.47.7.19.7Z"/><line class="cls-9" x1="415.9" y1="531.64" x2="417.25" y2="532.68"/><line class="cls-9" x1="413.41" y1="531.64" x2="415.72" y2="531.64"/><line class="cls-18" x1="3.34" y1="558.64" x2="15.28" y2="558.64"/><path class="cls-3" d="M2.22,558.55a1.71,1.71,0,0,0,.58.45,1.22,1.22,0,0,0,.24.1,2.36,2.36,0,0,0,.38.1l.14,0-.26-.07.07,0-.19-.11a.2.2,0,0,1,.09.09L3.18,559a.73.73,0,0,1,.08.33l2.8-.94,0,0,.1.15L6,558.2a1,1,0,0,0-.3-.39,1.87,1.87,0,0,0-.31-.17,2.38,2.38,0,0,0-.38-.11l-.3-.07.26.07a.5.5,0,0,1-.2-.08l.19.12a.43.43,0,0,1-.12-.11.56.56,0,0,0-.32-.15,1.12,1.12,0,0,0-.45-.06,2.1,2.1,0,0,0-.56.07,2.19,2.19,0,0,0-.57.16l-.33.16a1.67,1.67,0,0,0-.46.37l-.1.2a.32.32,0,0,0,.09.34.86.86,0,0,0,.3.23l.17.07.63.15-.26-.07a.72.72,0,0,1,.2.09L3,558.9a.57.57,0,0,1,.2.21l-.1-.16c.11.18.19.36.31.54a.63.63,0,0,0,.32.15,1.33,1.33,0,0,0,.45.05,3,3,0,0,0,.94-.17,1.42,1.42,0,0,0,.36-.14,1.59,1.59,0,0,0,.43-.26l.19-.19a.45.45,0,0,0,.11-.38,1.2,1.2,0,0,0,0-.2.36.36,0,0,0,0-.09A1.09,1.09,0,0,0,6,558a.18.18,0,0,0-.07,0,1.16,1.16,0,0,0-.52-.22l-.23,0,.26.07a.92.92,0,0,1-.32-.14l.18.12a1.18,1.18,0,0,1-.33-.3.5.5,0,0,0-.32-.15,1.12,1.12,0,0,0-.45-.06,2.15,2.15,0,0,0-.56.07,2.19,2.19,0,0,0-.57.16l-.33.16a1.5,1.5,0,0,0-.46.37l-.1.19a.33.33,0,0,0,.09.35Z"/><path class="cls-3" d="M13.12,557.66a1.76,1.76,0,0,0-.52.63,2.06,2.06,0,0,0-.15.48,4.53,4.53,0,0,0,0,.53,5.71,5.71,0,0,0,.14,1.42.94.94,0,0,0,.62.61,1.29,1.29,0,0,0,.52.08,1.42,1.42,0,0,0,.58-.06,1.73,1.73,0,0,0,.94-.57,1,1,0,0,0,.23-.84,5.06,5.06,0,0,1-.1-.68l0,.29a3.49,3.49,0,0,1,.06-1.07l-.08.28a1,1,0,0,1,.07-.15l-.17.27.06-.07-.25.24,0,0a1.27,1.27,0,0,0,.5-.79.84.84,0,0,0-.36-.75,1.58,1.58,0,0,0-1-.24,2,2,0,0,0-1.09.41Z"/><path class="cls-3" d="M16,558.65a1.75,1.75,0,0,0-.12-.32c-.09-.18-.18-.36-.28-.53a.81.81,0,0,0-.34-.24,1.14,1.14,0,0,0-.47-.13,1.54,1.54,0,0,0-.57,0,1.75,1.75,0,0,0-.58.17l-.32.19a1.35,1.35,0,0,0-.43.46l-.09.26a.67.67,0,0,0,.13.49,2.39,2.39,0,0,1,.13.21l-.12-.23a3,3,0,0,1,.17.41.51.51,0,0,0,.21.32.72.72,0,0,0,.38.21,1.31,1.31,0,0,0,.52.07,1.62,1.62,0,0,0,.58-.07l.38-.14a1.9,1.9,0,0,0,.57-.4l.18-.25a.72.72,0,0,0,.07-.52Z"/><line class="cls-19" x1="1.73" y1="555.07" x2="1.73" y2="558.64"/><line class="cls-19" x1="15.9" y1="556.7" x2="15.9" y2="561.29"/><line class="cls-19" x1="2.63" y1="559.34" x2="4.33" y2="560.65"/><path class="cls-3" d="M415.87,542.63c.63,0,1.61-.18,1.9-.84s-.23-1-.83-1-1.61.18-1.9.84.23,1,.83,1Z"/><line class="cls-9" x1="413.41" y1="542.61" x2="417.54" y2="542.61"/><polyline class="cls-16" points="404.13 531.64 415.01 531.64 428.9 541.7 258.25 542.07 258.25 531.28 415.9 531.64 428.9 541.7 430.07 542.61 15.9 542.61 15.9 569.61 430.07 569.61"/><path class="cls-3" d="M191.61,523.68a6.33,6.33,0,0,1,0,1.23v-.18a16.08,16.08,0,0,0,0,1.7,7.86,7.86,0,0,0,.26,1.6c.06.22.36.29.54.32a2.57,2.57,0,0,0,1.07-.1,2.66,2.66,0,0,0,1-.45c.15-.13.37-.32.31-.54a8.18,8.18,0,0,1-.26-2.56v.18a9.27,9.27,0,0,0,0-2c0-.22-.39-.3-.54-.32a2.64,2.64,0,0,0-1.08.1,2.53,2.53,0,0,0-1,.45c-.17.14-.35.3-.31.54Z"/><path class="cls-3" d="M204.91,530.38a8.76,8.76,0,0,1,.29,2v-.2a3.31,3.31,0,0,1-.09.77.45.45,0,0,0,.29.5,1.75,1.75,0,0,0,1,.1,2.82,2.82,0,0,0,1.09-.37,1.21,1.21,0,0,0,.56-.6,6.66,6.66,0,0,0-.2-2.94c-.06-.23-.37-.34-.56-.38a2.32,2.32,0,0,0-1.08.07,2.22,2.22,0,0,0-1,.48.66.66,0,0,0-.29.61Z"/><line class="cls-9" x1="191.63" y1="516.59" x2="191.63" y2="529.76"/><line class="cls-9" x1="208.25" y1="522.07" x2="208.25" y2="534.73"/><line class="cls-9" x1="32.4" y1="478.29" x2="32.4" y2="495.45"/><line class="cls-9" x1="0.5" y1="464.04" x2="0.5" y2="482.59"/><polyline class="cls-20" points="1.73 558.64 15.9 569.61 15.9 542.61 1.73 531.64 1.73 558.64 3.01 559.63"/><polygon class="cls-21" points="208.25 509.71 257.2 509.71 258.25 569.61 209.36 569.61 208.25 509.71"/><rect class="cls-21" x="15.9" y="542.61" width="414.17" height="27"/><polyline class="cls-16" points="191.63 509.71 208.25 509.71 208.25 542.24 191.63 530.76"/></g></g></svg>