<?xml version="1.0" encoding="utf-8"?>
<!-- Generator: Adobe Illustrator 25.2.3, SVG Export Plug-In . SVG Version: 6.00 Build 0)  -->
<svg version="1.1" id="레이어_2" xmlns="http://www.w3.org/2000/svg" xmlns:xlink="http://www.w3.org/1999/xlink" x="0px"
	 y="0px" viewBox="0 0 400 400" style="enable-background:new 0 0 400 400;" xml:space="preserve">
<style type="text/css">
	.st0-15{opacity:0.83;fill:current;}
</style>
<g class="st0-15">
	<path d="M212.5,231.7c-0.1,1.3-0.8,2.4-1.7,3.2c-0.9,0.8-2,1.5-3.1,2c-2.2,1.1-4.6,1.7-7.1,1.8c-2.5,0.1-5-0.1-7.4-0.9
		c-1.2-0.4-2.4-1-3.6-1.9c-0.6-0.4-1.1-1-1.5-1.7c-0.4-0.7-0.7-1.6-0.8-2.5c0-0.9,0.2-1.8,0.6-2.5c0.4-0.7,0.9-1.3,1.5-1.8
		c1.1-1,2.3-1.7,3.5-2.2c2.5-1.1,5.1-1.4,7.7-1.3c2.6,0.1,5.1,0.9,7.3,2.2c1.1,0.7,2.2,1.4,3,2.4
		C211.9,229.2,212.6,230.4,212.5,231.7z M212.1,231.7c-0.1-1.1-0.8-2.1-1.8-2.7c-0.9-0.6-2-0.9-3.1-1.1c-2.2-0.4-4.4-0.3-6.6-0.2
		c-2.2,0.1-4.3,0.4-6.3,1c-1,0.3-1.9,0.7-2.6,1.2c-0.4,0.3-0.6,0.6-0.9,0.8c-0.2,0.3-0.3,0.6-0.3,0.8c0,0.3,0,0.6,0.2,0.9
		c0.2,0.3,0.4,0.7,0.8,1c0.7,0.6,1.6,1.2,2.6,1.6c2,0.9,4.2,1.3,6.5,1.4c2.3,0.1,4.6,0,6.8-0.6c1.1-0.3,2.2-0.8,3.1-1.5
		c0.4-0.4,0.8-0.8,1.1-1.3C212,232.8,212.1,232.3,212.1,231.7z"/>
</g>
</svg>
