<?xml version="1.0" encoding="utf-8"?>
<!-- Generator: Adobe Illustrator 25.2.3, SVG Export Plug-In . SVG Version: 6.00 Build 0)  -->
<svg version="1.1" id="레이어_2" xmlns="http://www.w3.org/2000/svg" xmlns:xlink="http://www.w3.org/1999/xlink" x="0px"
	 y="0px" viewBox="0 0 400 400" style="enable-background:new 0 0 400 400;" xml:space="preserve">
<style type="text/css">
	.st0-14{opacity:0.82;fill:current;}
</style>
<g class="st0-14">
	<path d="M186.5,229.3c0.6-0.4,1.3-0.7,1.9-0.9l1.9-0.4c1.2-0.3,2.5-0.5,3.7-0.6c2.5-0.3,5-0.5,7.5-0.4c5,0.1,10,1.1,14.7,2.8
		l1.3,0.5l-0.7,1.2c-1.7,2.8-3.9,5.3-6.5,7.3c-2.6,2-5.5,3.4-8.6,4.5l-0.2,0.1l-0.2-0.1c-3-1.2-5.8-2.8-8.3-4.8
		c-2.5-2.1-4.4-4.7-5.8-7.5L186.5,229.3z M186.5,229.6l0.7,1.2c1.6,2.7,3.7,5.2,6.2,7.1c2.5,1.9,5.4,3.2,8.3,4.2l-0.4,0
		c2.9-1.2,5.6-2.8,7.9-4.8c2.3-2,4.2-4.4,5.6-7.1l0.6,1.6c-4.6-1.3-9.3-1.9-14-1.8c-2.3,0.1-4.7,0.3-7,0.8c-1.1,0.2-2.3,0.5-3.4,0.8
		l-1.6,0.5c-0.1,0.1,0-0.3-0.5-0.6L186.5,229.6z"/>
</g>
</svg>
