<?xml version="1.0" encoding="utf-8"?>
<!-- Generator: Adobe Illustrator 25.2.3, SVG Export Plug-In . SVG Version: 6.00 Build 0)  -->
<svg version="1.1" id="레이어_3" xmlns="http://www.w3.org/2000/svg" xmlns:xlink="http://www.w3.org/1999/xlink" x="0px"
	 y="0px" viewBox="0 0 400 400" style="enable-background:new 0 0 400 400;" xml:space="preserve">
<style type="text/css">
	.st0-12{opacity:0.82;fill:current;}
</style>
<g class="st0-12">
	<path d="M187.2,226.7c1.3,0.5,2.5,1.1,3.6,1.6c1.2,0.6,2.3,1.3,3.4,1.9c2.2,1.4,4.3,2.9,6.4,4.5l-2.5,0c2.1-1.6,4.2-3.1,6.5-4.5
		c1.1-0.7,2.3-1.3,3.5-1.9c1.2-0.6,2.4-1.2,3.7-1.6c-0.8,1.2-1.6,2.2-2.5,3.2c-0.9,1-1.8,2-2.8,2.9c-1.9,1.8-3.9,3.5-6,5.1l-1.2,0.9
		l-1.2-1c-2-1.6-4-3.3-5.8-5.1c-0.9-0.9-1.8-1.9-2.7-2.9C188.8,228.9,187.9,227.9,187.2,226.7z"/>
</g>
</svg>
