<?xml version="1.0" encoding="utf-8"?>
<!-- Generator: Adobe Illustrator 25.2.3, SVG Export Plug-In . SVG Version: 6.00 Build 0)  -->
<svg version="1.1" id="레이어_2" xmlns="http://www.w3.org/2000/svg" xmlns:xlink="http://www.w3.org/1999/xlink" x="0px"
	 y="0px" viewBox="0 0 400 400" style="enable-background:new 0 0 400 400;" xml:space="preserve">
<style type="text/css">
	.st0-13{opacity:0.82;fill:current;}
</style>
<g class="st0-13">
	<path d="M187.8,232.3c0.8,1.7,1.6,3.2,2.4,4.5c0.7,1.3,1.5,2.4,2,3.6l-1-1.2l2.6,1c0.9,0.3,1.7,0.7,2.6,1l2.6,1.1
		c0.9,0.4,1.7,0.7,2.5,1.1l-3.2,0.1l2.7-1.9c0.9-0.6,1.8-1.3,2.7-1.9l2.7-1.8c0.9-0.6,1.8-1.2,2.7-1.8l-1.6,2.2l0.9-3.5
		c0.3-1.2,0.6-2.3,1-3.5l3.3,4.3c-1.9-0.1-3.7-0.3-5.6-0.4c-1.9-0.2-3.8-0.5-5.8-0.8l-6.4-1l-3.5-0.5L187.8,232.3z M187.5,232.1
		l12.6-0.2l12.7-0.1l0.5,0l-0.1,0.5l-1.7,7l0,0.2l-0.1,0.1l-11,7l-0.2,0.1l-0.2-0.1l-9.7-5.3l-0.1-0.1l0-0.1
		C189.1,238,188.3,235,187.5,232.1z"/>
</g>
</svg>
