<?xml version="1.0" encoding="utf-8"?>
<!-- Generator: Adobe Illustrator 25.2.3, SVG Export Plug-In . SVG Version: 6.00 Build 0)  -->
<svg version="1.1" id="레이어_2" xmlns="http://www.w3.org/2000/svg" xmlns:xlink="http://www.w3.org/1999/xlink" x="0px"
	 y="0px" viewBox="0 0 400 400" style="enable-background:new 0 0 400 400;" xml:space="preserve">
<style type="text/css">
	.st0-23{opacity:0.89;}
</style>
<g class="st0-23">
	<path d="M176.4,271.9c1,1,2.3,1.5,3.6,1.5c1.3,0,2.6-0.5,3.8-1.1c2.4-1.3,4.5-3.1,6.4-5.1c1.9-2,3.7-4.2,5.2-6.5
		c1.5-2.3,2.9-4.7,3.7-7.2l1.5-4.9l1.5,5c0.8,2.6,2.1,5.2,3.7,7.4c1.6,2.3,3.4,4.4,5.4,6.4c1,1,2,1.9,3.1,2.7c1.1,0.8,2.3,1.5,3.5,2
		c1.2,0.5,2.5,0.9,3.9,0.8c1.3,0,2.7-0.4,4-1.1l0.3,0.3c-1,1.2-2.4,2.2-4,2.6c-1.6,0.4-3.3,0.4-5,0c-3.2-0.7-6.1-2.4-8.5-4.4
		c-2.4-2-4.5-4.5-6-7.2c-1.6-2.7-2.8-5.7-3.5-8.8l3,0.1c-1.2,2.9-2.8,5.3-4.6,7.7c-1.8,2.3-3.8,4.5-5.9,6.4
		c-2.2,1.9-4.6,3.7-7.3,4.8c-1.4,0.6-2.9,1-4.4,0.8c-0.8-0.1-1.5-0.3-2.2-0.6c-0.7-0.4-1.2-0.9-1.7-1.4L176.4,271.9z"/>
</g>
</svg>
