<?xml version="1.0" encoding="utf-8"?>
<!-- Generator: Adobe Illustrator 25.2.3, SVG Export Plug-In . SVG Version: 6.00 Build 0)  -->
<svg version="1.1" id="레이어_2" xmlns="http://www.w3.org/2000/svg" xmlns:xlink="http://www.w3.org/1999/xlink" x="0px"
	 y="0px" viewBox="0 0 400 400" style="enable-background:new 0 0 400 400;" xml:space="preserve">
<style type="text/css">
	.st0-22{opacity:0.89;fill:current;}
</style>
<g class="st0-22">
	<path d="M176.2,286.8c1.8-1.9,3.7-3.6,5.5-5.3c1.9-1.7,3.8-3.4,5.8-5c3.9-3.2,7.9-6.4,12-9.4l1.2-0.9l1.2,0.8
		c4.2,3,8.4,6.1,12.4,9.4c2,1.6,4,3.3,6,5c1.9,1.7,3.9,3.5,5.8,5.3c-2.4-1.1-4.6-2.4-6.9-3.7c-2.2-1.3-4.5-2.6-6.7-4
		c-4.4-2.8-8.7-5.7-12.9-8.7l2.3,0c-4.1,3-8.2,5.9-12.5,8.7c-2.1,1.4-4.3,2.7-6.5,4C180.7,284.3,178.5,285.6,176.2,286.8z"/>
</g>
</svg>
