<?xml version="1.0" encoding="utf-8"?>
<!-- Generator: Adobe Illustrator 25.2.3, SVG Export Plug-In . SVG Version: 6.00 Build 0)  -->
<svg version="1.1" id="레이어_4" xmlns="http://www.w3.org/2000/svg" xmlns:xlink="http://www.w3.org/1999/xlink" x="0px"
	 y="0px" viewBox="0 0 400 400" style="enable-background:new 0 0 400 400;" xml:space="preserve">
<style type="text/css">
	.st0-4{opacity:0.83;fill:current;}
</style>
<g>
	<path class="st0-4" d="M138.3,109.2c-6.4,2.5-12.6,5-18.7,7.6l-18.1,7.5l-8.9,3.6l-8.8,3.5c-5.9,2.3-11.8,4.5-17.8,6.6l0.3-0.1
		c-2.9,1.6-5.7,3.7-8.2,5.9c-2.6,2.3-4.9,4.8-7.2,7.4c-2.2,2.6-4.4,5.4-6.4,8.2c-2,2.8-4,5.7-5.8,8.7l0.1-0.2
		c-0.5,3.3-0.8,6.6-0.9,9.9c-0.1,3.3,0,6.7,0.3,10c0.3,3.3,0.7,6.6,1.3,9.9c0.6,3.3,1.3,6.5,2.3,9.7l-0.6-0.8l9.6,4.9l-0.8-0.2
		c5.5-0.3,10.7-2.2,15.5-4.9c4.8-2.7,9.2-6.2,13.5-9.9l-0.4,0.5l7.5-12.9c2.5-4.3,5-8.6,7.6-12.9l7.7-12.8l7.8-12.8l0.1-0.1l0,0
		c2.3-2.9,4.6-5.9,7-8.8l7.2-8.8l7.4-9.1C133.3,115.6,135.8,112.4,138.3,109.2z M138.6,109c-2.1,3-4.3,6.1-6.4,9.2l-6.5,9.6
		l-6.7,9.8c-2.3,3.3-4.6,6.6-7,9.8l0.1-0.2l-7.4,13l-7.5,12.9c-2.5,4.3-5.1,8.6-7.6,12.9L82,198.9l-0.2,0.3l-0.2,0.2
		c-4.5,3.7-9.1,7.3-14.4,10.1c-2.6,1.4-5.4,2.6-8.3,3.4c-2.9,0.8-5.9,1.3-8.9,1.4l-0.5,0l-0.3-0.2l-9.3-5.4l-0.5-0.3l-0.1-0.5
		c-1.5-6.6-2.4-13.3-2.7-20.1c-0.2-3.4-0.2-6.7-0.1-10.1c0.1-3.4,0.4-6.7,0.9-10.1l0-0.1l0.1-0.1c1.9-3,3.7-5.9,5.6-8.9
		c1.9-2.9,3.9-5.9,6-8.7c2.1-2.8,4.4-5.5,6.9-8.1c2.5-2.5,5.3-4.9,8.4-6.8l0.1-0.1l0.2-0.1c6.2-2.4,12.4-4.8,18.7-7l9.4-3.3l9.4-3.2
		l18.5-6.2C126.9,113,132.8,111,138.6,109z"/>
</g>
<g>
	<path class="st0-4" d="M260.3,109c4.6,0.9,9.4,1.9,14.3,2.8l14.8,2.8c5,0.9,10.1,1.9,15.2,3c5.1,1,10.2,2.2,15.2,3.3l0.2,0l0.2,0.1
		c2.3,1,4.6,2.2,6.9,3.4c2.3,1.2,4.4,2.6,6.6,4.1c4.2,2.9,8.1,6.4,11.4,10.5c0.8,1,1.6,2.1,2.3,3.1l2,3.2l3.9,6.5l4,6.4l4.1,6.4
		l0.1,0.1l0,0.1c0.6,3.9,1.2,7.8,1.6,11.7c0.2,2,0.4,3.9,0.4,5.9c0.1,2,0.2,4,0.1,5.9c-0.1,2-0.3,4-0.7,6c-0.5,2.1-1.5,4-2.7,5.7
		c-2.5,3.3-5.6,6-8.7,8.4l-0.3,0.2l-0.5,0c-4.4,0.4-8.7-0.4-12.7-1.7c-4-1.4-7.8-3.3-11.4-5.4l-0.3-0.2l-0.3-0.4l-12.6-18.6L307,173
		l-6.2-9.4l-1.5-2.4c-0.5-0.8-1-1.6-1.6-2.3l-3.3-4.5l-6.6-9.1l-6.6-9.1l-6.5-9.2l0.1,0.1l-3.8-4.6c-1.3-1.5-2.5-3.1-3.7-4.6
		C265,114.7,262.6,111.8,260.3,109z M260.6,109.2c2.7,3,5.5,5.8,8.1,8.4c1.3,1.3,2.7,2.6,3.9,4l3.8,4l0,0l0.1,0.1l7.1,8.8l7,8.8
		l6.9,8.9l3.5,4.5c0.6,0.7,1.1,1.5,1.6,2.3l1.6,2.3l6.3,9.3l6.2,9.4l12.3,18.9l-0.6-0.6c3.4,2.1,6.9,4,10.6,5.4
		c3.7,1.4,7.5,2.2,11.3,2l-0.8,0.3c3.2-2.2,6.2-4.5,8.6-7.4c1.2-1.4,2.1-3,2.6-4.7c0.5-1.8,0.7-3.7,0.9-5.6
		c0.3-3.8,0.2-7.7-0.1-11.6c-0.3-3.9-0.8-7.8-1.4-11.6l0.1,0.2l-4.2-6.3l-4.2-6.3l-4.3-6.2l-2.1-3.1c-0.7-1-1.5-1.9-2.3-2.8
		c-3.3-3.6-7.2-6.7-11.4-9.3c-4.1-2.7-8.5-4.9-13.1-7l0.3,0.1c-4.8-1.1-9.5-2.3-14.2-3.5c-4.7-1.2-9.5-2.4-14.3-3.8l-14.6-4
		C270.9,111.8,265.8,110.5,260.6,109.2z"/>
</g>
</svg>
