<?xml version="1.0" encoding="utf-8"?>
<!-- Generator: Adobe Illustrator 25.2.3, SVG Export Plug-In . SVG Version: 6.00 Build 0)  -->
<svg version="1.1" id="레이어_3" xmlns="http://www.w3.org/2000/svg" xmlns:xlink="http://www.w3.org/1999/xlink" x="0px"
	 y="0px" viewBox="0 0 400 400" style="enable-background:new 0 0 400 400;" xml:space="preserve">
<style type="text/css">
	.st0-5{opacity:0.81;fill:current;}
</style>
<g class="st0-5">
	<g>
		<path d="M147.5,103.7l-3.1-6.6c-1-2.1-2-4.2-2.9-6.3l0.3,0.4c-1.8-1.2-3.6-2.5-5.4-3.7c-1.8-1.2-3.6-2.5-5.4-3.8l0.9,0.3l-6.7,0.2
			c-2.2,0.1-4.5,0.1-6.7,0.1l1.1-0.4l-4.9,4.1l-5,4l0.7-1.5l0,9.4l-0.1,9.4l-0.5-1.3c2.1,2.3,4.3,4.7,6.4,7c2.1,2.4,4.2,4.7,6.3,7.1
			l-2.1-0.2l6.5-4.5l6.7-4.5l6.9-4.5L147.5,103.7z M147.5,103.7l-6,5.1l-6.2,5.2l-6.4,5.2l-6.6,5.2l-1.1,0.9l-1.1-1.1
			c-2.2-2.2-4.4-4.5-6.6-6.8c-2.2-2.3-4.4-4.5-6.5-6.9l-0.5-0.6l0-0.8l-0.1-9.4l0-9.4l0-1l0.7-0.6l5.1-3.9l5.1-3.9l0.5-0.4l0.6,0
			c2.2,0,4.5,0.1,6.7,0.1l6.7,0.2l0.5,0l0.3,0.3c1.7,1.4,3.4,2.8,5.1,4.2c1.7,1.4,3.4,2.8,5.1,4.2l0.2,0.2l0.1,0.2
			c0.8,2.3,1.5,4.7,2.2,6.9L147.5,103.7z"/>
	</g>
	<g>
		<path d="M250.9,105.2l1.2-6.2c0.4-2.1,0.9-4.3,1.4-6.5l0-0.2l0.2-0.2c1.4-1.5,2.9-2.9,4.3-4.3c1.4-1.4,2.9-2.9,4.4-4.3l0.3-0.3
			l0.5-0.1l6.2-0.9c2.1-0.3,4.2-0.5,6.2-0.8l0.6-0.1l0.6,0.3l5.1,2.9l5.1,3l0.8,0.5l0.1,1l1,8.4l0.9,8.4l0.1,0.8l-0.5,0.6
			c-1.8,2.3-3.6,4.5-5.4,6.8c-1.8,2.2-3.6,4.5-5.5,6.7l-0.9,1.1l-1.1-0.7l-6.6-4l-6.5-4.1l-6.3-4.1L250.9,105.2z M250.9,105.2
			l7.1,3.4l6.8,3.3l6.7,3.3l6.5,3.3L276,119c1.7-2.4,3.5-4.7,5.2-7c1.7-2.3,3.5-4.6,5.3-6.9l-0.4,1.4l-1-8.4l-0.9-8.4l0.9,1.5
			l-5.1-3.1l-5-3.1l1.1,0.2c-2.1,0.2-4.2,0.4-6.3,0.5l-6.3,0.5l0.8-0.4c-1.5,1.3-3.1,2.6-4.7,3.9c-1.6,1.3-3.1,2.6-4.7,3.9l0.3-0.4
			c-0.7,1.9-1.4,3.9-2.1,5.9L250.9,105.2z"/>
	</g>
</g>
</svg>
