<?xml version="1.0" encoding="utf-8"?>
<!-- Generator: Adobe Illustrator 25.2.3, SVG Export Plug-In . SVG Version: 6.00 Build 0)  -->
<svg version="1.1" id="레이어_3_1_" xmlns="http://www.w3.org/2000/svg" xmlns:xlink="http://www.w3.org/1999/xlink" x="0px"
	 y="0px" viewBox="0 0 400 400" style="enable-background:new 0 0 400 400;" xml:space="preserve">
<style type="text/css">
	.st0-3{opacity:0.83;fill:current;}
	.st1-3{opacity:0.83;}
</style>
<path class="st0-3" d="M146.3,105c1,1.7,2,3.5,3.1,5.2"/>
<path class="st0-3" d="M145.9,105.9c1.1,1.8,2.3,3.5,3.4,5.3"/>
<g class="st1-3">
	<g>
		<path d="M150.2,112.1c-0.8-1.1-1.7-2.2-2.5-3.3c-0.8-1-1.7-2-2.4-2.9l0.2,0.2l-7.4-3.8l-7.3-3.9l-3.7-1.9
			c-1.2-0.7-2.4-1.4-3.5-2.2l-7.1-4.3L88.2,72.7l2.8-0.8l-27.2,55l-2.7-2.7l44.1-21l0.6-0.3l0.6,0.1c3.5,0.6,7,1.1,10.5,1.8
			c3.4,0.4,7,1.4,10.6,2.3C134.7,108.8,142.3,110.6,150.2,112.1z M150.2,112.1c-6.8-0.9-13.9-1.5-21.4-2.1
			c-3.7-0.3-7.6-0.5-11.5-1.2c-3.9-0.6-7.7-1.2-11.5-1.8l1.2-0.2l-44.1,21l-5.2,2.5l2.6-5.2l27.2-55l1-2l1.9,1.1l28.3,17.3l7.1,4.3
			c1.2,0.7,2.4,1.4,3.5,2.2l3.4,2.4l6.8,4.8l6.8,4.8l0.1,0.1l0,0.1c0.7,1.2,1.4,2.5,2,3.6C148.9,109.9,149.5,111,150.2,112.1z"/>
	</g>
	<g>
		<path d="M244.5,107c0.2-1.1,0.3-2.3,1.1-3.3c0.4-0.5,1-0.9,1.6-1c0.6-0.2,1.5-0.1,2.1,0.4l-0.8,0c3-3,6-5.9,9.1-8.9l4.6-4.4
			c1.5-1.5,3.3-2.7,4.9-4.1l19.4-16.2l1.3-1.1l1.3,1.1l46.7,39.3l6,5.1l-7.7-1.6l-45-9.2l0.7,0l-11.7,1.5c-2,0.2-3.9,0.4-5.9,0.7
			c-2,0.3-3.9,0.3-5.8,0.4C258.8,106.1,251.5,106.4,244.5,107z M244.5,107c8-1.4,15.7-3,23.1-4.6c1.8-0.4,3.7-0.9,5.5-1.1
			c1.8-0.2,3.6-0.5,5.4-0.7l10.8-1.5l0.3,0l0.3,0.1l45,9.2l-1.7,3.5l-46.7-39.3l2.6,0l-19.4,16.2c-1.7,1.3-3.2,2.8-4.9,4.1l-5.1,3.7
			c-3.4,2.5-6.9,4.9-10.3,7.4l-0.5,0.4l-0.3-0.4c-0.2-0.3-0.6-0.4-1.1-0.4c-0.5,0-1,0.2-1.3,0.6C245.3,104.8,244.8,105.9,244.5,107z
			"/>
	</g>
	<g>
		<path d="M75.6,119.5c1.1,1.4,2.1,2.8,3,4.2c0.2,0.4,0.5,0.7,0.6,1.1c0,0.4,0.2,0.8,0.3,1.2l0.6,2.3l2.5,9.3l2.5,9.3
			c0.9,3.1,1.6,6.2,2.6,9.2l-0.3-0.7c0.2,0.2,0.2,0.4,0.3,0.7l0.3,0.7l0.5,1.5c0.3,1,0.6,2,0.9,3.1c-0.9-0.5-1.8-1.1-2.7-1.7
			l-1.3-0.9l-0.6-0.4c-0.2-0.2-0.4-0.3-0.6-0.5l-0.3-0.5l0-0.2c-0.8-3.1-1.6-6.2-2.5-9.3l-2.5-9.3l-2.5-9.3l-0.6-2.3
			c-0.1-0.4-0.2-0.8-0.4-1.1c-0.2-0.4-0.1-0.8-0.1-1.2C75.2,122.9,75.3,121.2,75.6,119.5z"/>
	</g>
	<g>
		<path d="M321.7,107.7c0.5,2.1,0.7,4.2,0.9,6.3c-0.4,2-0.7,4-1.1,6l-2.2,12l-2.2,12l-1.1,6c-1,1.9-1.9,3.8-3,5.6
			c-0.4-2.1-0.7-4.2-0.9-6.3l1.1-6l2.2-12l2.2-12c0.3-2,0.7-4,1.1-6C319.5,111.4,320.5,109.5,321.7,107.7z"/>
	</g>
</g>
</svg>
