<?xml version="1.0" encoding="utf-8"?>
<!-- Generator: Adobe Illustrator 25.2.3, SVG Export Plug-In . SVG Version: 6.00 Build 0)  -->
<svg version="1.1"
	xmlns="http://www.w3.org/2000/svg"
	xmlns:xlink="http://www.w3.org/1999/xlink"
	x="0px"
	y="0px"
	viewBox="0 0 400 400"
	style="enable-background:new 0 0 400 400;"
	xml:space="preserve">
	<style type="text/css">
	.st0-1{display:none;}
	.st1-1{display:inline;}
	.st2-1{fill:current;}
	.st3-1{fill:#FFFFFF;}
	</style>
	<g id="레이어_1"
		class="st0-1">
		<g id="레이어_1_1_"
			class="st1-1">
			<circle class="st2-1"
				cx="199.5"
				cy="228.5"
				r="135" />
		</g>
		<g id="레이어_1_사본"
			class="st1-1">
			<circle class="st3-1"
				cx="199.5"
				cy="228.5"
				r="135" />
		</g>
	</g>
	<g id="레이어_3">
		<g>
			<g>
				<path d="M132.6,111c-1.6-5.8-3.1-11.6-4.5-17.3c-1.4-5.7-2.8-11.4-4.1-17c-0.7-2.8-1.3-5.6-1.9-8.5c-0.6-2.8-1.3-5.6-1.9-8.4
				c-1.2-5.6-2.3-11.3-3.2-17l2.6,0.6c-6.2,7.8-12,16-16.7,24.8c-0.6,1.1-1.2,2.2-1.8,3.3l-1.6,3.4c-0.5,1.1-1.1,2.3-1.6,3.4
				l-1.4,3.5c-0.5,1.2-0.9,2.3-1.4,3.5l-1.2,3.5c-0.4,1.2-0.8,2.4-1.2,3.5l-1,3.6c-2.6,9.6-4.3,19.4-4.9,29.3l-0.1,1.8l0,1.9
				l-0.1,3.7c-0.1,1.2,0,2.5,0.1,3.7l0.1,3.7c0.1,2.5,0.4,4.9,0.6,7.4c0.3,2.4,0.7,4.9,1,7.3l-3.6-1.2c3.9-3.6,7.7-7.1,11.6-10.7
				c3.9-3.5,7.8-7.1,11.8-10.6c4-3.5,8-7,12.1-10.6c2-1.8,4.1-3.5,6.1-5.3L132.6,111z M133,111.2c-1.8,1.9-3.6,3.8-5.4,5.7
				c-1.8,1.9-3.6,3.8-5.5,5.7c-3.7,3.8-7.4,7.6-11.2,11.4c-3.8,3.8-7.6,7.6-11.5,11.4c-3.9,3.8-7.8,7.5-11.7,11.3l-3,2.9l-0.6-4.1
				c-0.4-2.5-0.7-5-1-7.6c-0.2-2.5-0.5-5.1-0.5-7.6l-0.1-3.8c0-1.3-0.1-2.5,0-3.8l0.2-3.8l0.1-1.9l0.2-1.9c0.3-2.5,0.4-5.1,0.9-7.6
				c0.4-2.5,0.8-5,1.4-7.5l0.8-3.7c0.3-1.2,0.7-2.4,1-3.7l1.1-3.6c0.4-1.2,0.8-2.4,1.2-3.6l1.3-3.6c0.4-1.2,0.9-2.3,1.4-3.5l1.4-3.5
				l1.6-3.4l1.5-3.4c0.5-1.1,1.1-2.2,1.7-3.4l1.7-3.4c0.6-1.1,1.2-2.2,1.8-3.3c4.7-8.9,9.8-17.6,15.5-26l1.8-2.6l0.8,3.2
				c1.4,5.7,2.8,11.5,4,17.3c0.6,2.9,1.2,5.8,1.8,8.7c0.6,2.9,1.1,5.8,1.7,8.7c1.1,5.8,2.1,11.5,3.1,17.3
				C131.3,99.9,132.2,105.6,133,111.2z" />
			</g>
			<g>
				<path d="M118.3,42.4c2,4.5,4.3,9.4,6.7,14.3c2.4,5,4.9,10.1,7.3,15.5c2.4,5.4,4.5,11.2,6.5,16.7c2,5.5,4.2,10.7,6.6,15.9l0.3,0.6
				l-0.6,0.3c-1,0.5-1.9,1.1-2.9,1.6l-2.9,1.7l-5.8,3.4l-1.5,0.9l-0.5-1.8c-1.6-5.8-2.9-11.7-4.2-17.6c-1.3-6-2.5-12.1-3.5-18
				c-1-6-1.8-11.7-2.7-17.3C120.2,52.9,119.3,47.5,118.3,42.4z M118.4,42.8c1.4,6.3,2.9,12.3,4.4,18.2l4.5,17
				c1.5,5.5,2.7,10.8,3.8,16.3c1.1,5.5,2.2,11,3,16.6l-2-1l6.1-2.7l3.1-1.4c1-0.5,2.1-0.9,3.1-1.4l-0.3,0.9
				c-2-5.2-4.2-10.4-6.6-15.3c-2.4-4.9-4.7-9.6-6.7-14.6c-2-5-3.8-10.3-5.9-15.8C122.9,54.2,120.8,48.6,118.4,42.8z" />
			</g>
			<g>
				<path d="M256.5,106.2c0.9-5.2,2-10.5,3.1-15.8c1.1-5.3,2.3-10.7,3.5-16l1.8-8.1l1.9-8.1c1.3-5.4,2.6-10.8,4.1-16.1l0.8-2.9l2,2.1
				c1.8,1.9,3.6,3.8,5.3,5.7c1.6,2,3.3,4,4.9,6c1.5,2.1,3,4.2,4.5,6.3c1.3,2.2,2.8,4.3,4.1,6.6c5.3,8.9,9.5,18.3,13,28
				c3.4,9.7,6,19.8,7.4,30.1c1.4,10.3,2.1,20.6,2.1,30.9l0,4.6l-3.5-3c-4.8-4.1-9.5-8.3-14.2-12.5c-4.7-4.2-9.3-8.4-13.9-12.6
				c-4.6-4.2-9.1-8.5-13.6-12.7c-2.3-2.1-4.5-4.2-6.7-6.3L256.5,106.2z M256.8,106.1l7.5,5.9c2.5,2,4.9,3.9,7.4,5.9
				c4.9,3.9,9.7,7.8,14.5,11.8c4.8,3.9,9.5,7.9,14.2,11.8c4.7,4,9.3,7.9,13.9,12l-3.5,1.6c0.1-10.2-0.2-20.4-1.4-30.5
				c-1.2-10.1-2.8-20.2-5.7-30c-2.8-9.8-6.9-19.3-12.4-27.9c-5.5-8.6-12.4-16.2-19.9-23l2.8-0.8c-1.2,5.3-2.5,10.5-3.8,15.7l-2,7.8
				l-2.1,7.8c-1.4,5.2-2.9,10.5-4.5,15.8C260.1,95.4,258.5,100.7,256.8,106.1z" />
			</g>
			<g>
				<path d="M272.4,42.8c-0.3,0.8-0.2,1.4-0.3,1.9c0,0.2-0.1,0.6-0.2,0.9l-0.3,1c-0.4,1.3-0.8,2.6-1.2,3.9c-0.8,2.6-1.7,5.1-2.6,7.7
				c-1.8,5.1-3.7,10.1-5.9,15.1c-2.2,4.9-4.7,9.7-7,14.6c-2.3,4.9-4.3,9.9-6.1,15l-0.4-1.1c2.9,1.1,5.8,2.1,8.7,3.1l-1.8,0.9
				c0.9-5.3,2.1-10.4,3.3-15.4c1.2-5,2.5-10,4.1-15l4.9-15.7C269.3,54.3,270.9,48.7,272.4,42.8z M272.6,42.4
				c-1.1,4.7-2.1,9.7-3.1,14.9l-3,16.1c-1.1,5.5-2.4,11.2-3.8,16.8c-1.4,5.6-2.9,11-4.6,16.4l-0.5,1.6l-1.3-0.7
				c-2.8-1.4-5.5-2.8-8.3-4.1l-0.8-0.4l0.3-0.7c2.3-4.9,4.3-9.9,6.1-15c1.8-5.1,3.3-10.3,5.2-15.4c1.9-5,4.1-10,6.3-14.9
				c1.1-2.4,2.3-4.9,3.5-7.3c0.6-1.2,1.2-2.4,1.8-3.6l1-1.9C271.8,43.4,272.3,42.9,272.6,42.4z" />
			</g>
		</g>
	</g>
	<g id="레이어_4"
		class="st0-1">
		<g class="st1-1">
			<path d="M105,103.5c-1.3-1.3-3.2-1.9-4.9-1.7c-1.7,0.1-3.4,1-4.4,2.3c-1,1.3-1.2,3.1-0.7,4.7c0.4,1.6,1.5,3,2.8,3.7l5.3,2.5
			l-5.8-0.9c-1.5-0.2-3,0.1-4.3,0.9c-1.3,0.7-2.4,2-2.7,3.3c-0.2,0.6-0.2,1.3,0.1,1.9c0.2,0.6,0.7,1.2,1.2,1.7
			c1.1,1,2.6,1.8,4.1,2.5l-1,1.6c0,0,0.1,0,0,0c-0.1,0-0.2,0.1-0.4,0.2c-0.1,0.1-0.3,0.3-0.4,0.4c-0.1,0.2-0.2,0.4-0.3,0.7
			c-0.3,0.9-0.3,2-0.1,3c0.3,1,0.8,2,1.6,2.8c0.7,0.8,1.7,1.3,2.7,1.5l-0.5,1.3c-0.1-0.1-0.2-0.1-0.3-0.1c-0.1,0-0.3,0.1-0.5,0.3
			c-0.4,0.3-0.7,0.8-0.9,1.4c-0.3,1.1-0.5,2.4-0.3,3.6c0.2,1.2,0.7,2.4,1.6,3.2c0.9,0.8,2.3,1.2,3.5,0.8c-1.2,0.6-2.7,0.3-3.8-0.4
			c-1.2-0.8-1.9-2.1-2.2-3.4c-0.3-1.4-0.3-2.7,0-4.1c0.2-0.7,0.5-1.4,1.1-2c0.3-0.3,0.6-0.6,1.1-0.7c0.5-0.1,1.1,0,1.5,0.3l1.9,1.6
			l-2.5-0.3c-1.4-0.2-2.7-0.8-3.7-1.7c-1-0.9-1.7-2.1-2.1-3.4c-0.4-1.3-0.4-2.8,0-4.1c0.1-0.3,0.2-0.6,0.4-1c0.2-0.4,0.5-0.7,0.8-1
			c0.3-0.3,0.7-0.5,1.2-0.6c0.5-0.2,1.3,0,1.7,0.4l3.5,3.5l-4.5-1.9c-1.6-0.7-3.3-1.5-4.7-2.8c-0.7-0.6-1.3-1.5-1.7-2.5
			c-0.4-1-0.4-2.1-0.1-3.1c0.3-1,0.8-1.8,1.5-2.6c0.6-0.7,1.4-1.4,2.2-1.8c1.7-0.9,3.7-1.3,5.6-1L97,114c-1.9-1-3.1-2.9-3.5-4.9
			c-0.4-2,0-4.1,1.3-5.7c1.3-1.6,3.3-2.3,5.2-2.2C102,101.2,103.9,102,105,103.5z" />
		</g>
		<g class="st1-1">
			<path d="M278.8,94.8c0.4-0.5,1-0.9,1.7-1c0.7-0.1,1.4,0,2,0.2c1.3,0.5,2.2,1.8,2.7,3.1c0.5,1.3,0.6,2.7,0.4,4.1
			c-0.1,0.7-0.3,1.4-0.6,2.1c-0.4,0.7-1,1.3-1.7,1.6l-0.4-1.4c0.8-0.2,1.7-0.3,2.6-0.2c0.9,0.1,1.7,0.3,2.5,0.6c1.6,0.7,3,1.8,4,3.2
			c0.5,0.7,0.9,1.5,1.1,2.4c0.2,0.8,0.3,1.8,0.2,2.7c-0.2,0.9-0.5,1.8-1.1,2.6c-0.3,0.4-0.7,0.7-1.2,1c-0.5,0.3-1,0.4-1.6,0.4
			l-0.1-2c1.6-0.1,3.2,0.4,4.5,1.3c1.3,0.9,2.3,2.1,2.9,3.5c0.7,1.4,0.8,3,0.5,4.6c-0.2,0.8-0.6,1.5-1.2,2.2
			c-0.3,0.3-0.7,0.6-1.2,0.7c-0.5,0.2-1.1,0.2-1.5,0l0.8-1.4c1.2,1.2,2.3,2.6,3.2,4.1c0.9,1.5,1.6,3.1,1.9,4.9
			c0.3,1.7,0.1,3.6-0.6,5.2c-0.4,0.8-0.9,1.5-1.5,2.1c-0.6,0.6-1.5,1-2.3,1c0.8-0.2,1.5-0.6,2.1-1.2c0.5-0.6,0.9-1.3,1.2-2.1
			c0.5-1.5,0.5-3.2,0.1-4.7c-0.4-1.6-1.2-3-2.1-4.3c-0.9-1.3-2-2.5-3.2-3.6l-2.7-2.5l3.6,1.1c0.3,0.1,0.6,0,1-0.4
			c0.3-0.3,0.6-0.9,0.7-1.3c0.2-1.1,0.1-2.3-0.4-3.4c-0.5-1.1-1.3-2-2.3-2.7c-1-0.7-2.1-1-3.2-0.9l-0.1-2c0.9,0,1.8-1.1,2-2.4
			c0.2-1.3-0.2-2.6-0.9-3.8c-0.8-1.2-1.9-2.1-3.2-2.7c-0.6-0.3-1.3-0.5-2-0.6c-0.7-0.1-1.4-0.1-2.1,0.1l-0.4-1.4
			c0.9-0.3,1.5-1.4,1.8-2.6c0.2-1.2,0.2-2.5-0.1-3.7c-0.3-1.2-0.9-2.3-2-2.9C281.3,93.9,279.8,93.8,278.8,94.8z" />
		</g>
	</g>
</svg>
