<?xml version="1.0" encoding="utf-8"?>
<!-- Generator: Adobe Illustrator 25.2.3, SVG Export Plug-In . SVG Version: 6.00 Build 0)  -->
<svg version="1.1" xmlns="http://www.w3.org/2000/svg" xmlns:xlink="http://www.w3.org/1999/xlink" x="0px" y="0px"
	 viewBox="0 0 400 400" style="enable-background:new 0 0 400 400;" xml:space="preserve">
<style type="text/css">
	.st0-2{display:none;}
	.st1-2{display:inline;fill:current;}
	.st2-2{display:inline;}
</style>
<g id="레이어_2">
	<g>
		<g>
			<path d="M141.1,106.7l-6.6-6.9l-3.4-3.5l-3.4-3.4c-4.6-4.5-9.3-8.8-14-13.1c-4.8-4.3-9.6-8.4-14.6-12.4c-5-4-10.1-7.8-15.3-11.6
				l3.7-1.3c-1.9,8.1-3.2,16.4-4,24.8c-0.8,8.3-1,16.7-0.8,25.1c0.3,16.8,2.5,33.5,6,49.9l-3.8-1.2l13.7-11.5l13.9-11.5
				c4.6-3.9,9.4-7.7,14.2-11.6L141.1,106.7z M141.4,106.7l-54.8,48.2l-0.3,0.3l-0.1-0.4c-3.7-16.6-6.1-33.4-6.5-50.4
				c-0.4-17,1.2-34,5.2-50.5l0.1-0.4l0.3,0.2c10.3,7.7,20.2,15.9,29.6,24.8c4.7,4.4,9.2,9,13.6,13.7l3.3,3.5l3.2,3.6l3.2,3.6
				L141.4,106.7z"/>
		</g>
		<g>
			<path d="M255.7,106.2l0.9-1.9l0.5-1l0.5-0.9c0.7-1.2,1.3-2.5,2.1-3.7c1.4-2.4,3-4.8,4.5-7.2c3.1-4.7,6.4-9.3,9.9-13.8
				c6.9-8.9,14.2-17.6,21.6-26.1l2.2-2.5l1.5,3c4.1,8,7.6,16.3,10.5,24.8c2.8,8.5,5,17.4,6.2,26.4c1.1,9,1.2,18.2,0,27.2
				c-1.2,9-3.7,17.9-7.3,26.2l-1.4,3.2l-2.4-2.4l-25.2-25.7c-4.2-4.2-8.2-8.6-12.2-12.8l-6.1-6.3L255.7,106.2z M256,106.2l50.9,49.3
				l-0.4,0.1c3.5-8.1,5.8-16.8,6.8-25.6c1.1-8.8,0.9-17.7-0.2-26.5c-1.1-8.8-3.2-17.4-5.9-25.8c-2.8-8.4-6.2-16.6-10.1-24.6l0.4,0.1
				c-7.6,8.3-15,16.8-22.1,25.5c-3.5,4.4-7,8.8-10.3,13.4c-1.6,2.3-3.2,4.6-4.8,7C258.8,101.4,257.4,103.9,256,106.2z"/>
		</g>
		<g>
			<path d="M132.4,114.5c-0.7-0.4-1.5-0.8-2.2-1.2l-0.1-0.2c-2.5-2.8-5-5.5-7.7-8c-2.6-2.6-5.3-5-8.1-7.4c-2.8-2.4-5.6-4.7-8.5-7.2
				c-2.8-2.4-5.7-4.9-8.5-7.7l0.2-0.3c6.5,3.8,12.9,8,18.7,12.8c2.9,2.4,5.6,5.1,8.1,8c2.5,2.9,4.7,5.9,6.6,9.3l0,0l1.8,1.6
				L132.4,114.5z"/>
		</g>
		<g>
			<path d="M264.1,114.3c0.6-3.9,2-7.5,3.7-10.9l0.6-1.3c0.2-0.4,0.5-0.8,0.7-1.2c0.5-0.8,1-1.7,1.5-2.5c0.5-0.8,1.1-1.6,1.6-2.4
				c0.5-0.8,1.1-1.6,1.7-2.3c0.6-0.7,1.2-1.5,1.8-2.2c0.6-0.7,1.2-1.5,1.9-2.1c0.7-0.7,1.3-1.4,2-2c0.7-0.7,1.4-1.3,2.1-1.9
				c2.9-2.5,5.9-4.8,9.4-6.6l0.2,0.2c-2.7,2.6-5.3,5.3-7.8,8c-2.5,2.8-4.9,5.6-7.2,8.6c-4.6,5.9-8.7,12.2-12,18.9L264.1,114.3z"/>
		</g>
	</g>
</g>
<g id="레이어_3_1_" class="st0-2">
	<path class="st1-2" d="M146.3,105c1,1.7,2,3.5,3.1,5.2"/>
	<path class="st2-2" d="M85.6,156.5c1.2,1.6,2.4,3.2,3.6,4.7"/>
	<path class="st1-2" d="M145.9,105.9c1.1,1.8,2.3,3.5,3.4,5.3"/>
	<path class="st2-2" d="M86.1,156.9c1.8,1.7,3.1,3.8,3.8,6.2"/>
	<path class="st2-2" d="M145.8,105.5c1.5,2.2,2.9,4.4,4.4,6.5"/>
	<path class="st2-2" d="M248.9,103.5c-0.8-0.8-2.3-0.4-3.1,0.4c-0.8,0.8-1.1,2-1.3,3.1"/>
	<path class="st2-2" d="M314.4,159.6c-0.3-0.9-1.6-0.2-2,0.5c-0.8,1.2-1.4,2.5-1.9,3.8"/>
</g>
</svg>
