<svg xmlns="http://www.w3.org/2000/svg" viewBox="0 0 312.89 491.17"><defs><style>.cls-1{fill:#fce2ce;}.cls-2{fill:#4b3628;}.cls-3{fill:#bd8f70;}.cls-4{fill:#9f9fa0;}.cls-5{fill:#e9c6ae;}.cls-6{fill:#363850;}.cls-7{fill:#040000;}.cls-8{fill:#162142;}.cls-9{fill:#d6d7d8;}.cls-10{fill:#5d4434;}.cls-11{fill:#503b2d;}.cls-12{fill:#55392a;}.cls-13{fill:#462c1b;}.cls-14{fill:#6b4e39;}.cls-15{fill:#3c2413;}.cls-16{fill:#613e25;}</style></defs><g id="레이어_2" data-name="레이어 2"><g id="레이어_2-2" data-name="레이어 2"><path class="cls-1" d="M187.72,45.77l52.43,10.56,5.11,39.15-45.54,29.4a8.36,8.36,0,0,1-7.39.84l-26.05-9.48-18.73-14-2-35.06Z"/><path class="cls-2" d="M189,0l45.32,6.38a1,1,0,0,1,.58.3l33.14,34.05a.92.92,0,0,1,.27.49l28,130.86a7.64,7.64,0,0,1-.1,3.65l-1.32,4.83a1,1,0,0,1-1.88.18l-18.88-38.27a1,1,0,0,0-.76-.56l-52.94-7.38a1,1,0,0,1-.86-.85l-3-19.4a1,1,0,0,1,.45-1l27.61-17.66a1,1,0,0,0,.46-1l-4.93-37.79a1,1,0,0,0-.8-.86L188.07,45.69a.94.94,0,0,0-.66.09l-41.31,21a1,1,0,0,0-.55,1l2,33.89a1,1,0,0,0,.48.79L174.49,119a1,1,0,0,1,.46.71L177,133.51a1,1,0,0,1-.8,1.14l-41.64,8.08a1,1,0,0,0-.64.41l-13.18,19a1,1,0,0,1-1.83-.69L135.62,25.65a2,2,0,0,1,1.12-1.54l51.73-24A1,1,0,0,1,189,0Z"/><polygon class="cls-3" points="195.38 140.6 177.15 134.47 177.15 120.04 196.22 125.95 216.55 113.67 217.62 135 195.38 140.6"/><polygon class="cls-4" points="195.7 140.6 195.7 140.6 217.94 135 234.24 136.09 230.25 156.94 195.7 140.6"/><polygon class="cls-4" points="167.68 158.89 196.53 142.55 195.77 142.55 177.53 136.43 162.91 136.43 167.68 158.89"/><g id="레이어_1-2" data-name="레이어 1"><path class="cls-5" d="M227.72,442.69l4.81,23.15-16.76-2.07s-3.07-17.21-3.56-17.08Z"/><path class="cls-6" d="M233.11,476.05l-21.74,11-.2.09L201.35,491a2.34,2.34,0,0,1-2.19-.24l-2.6-1.78a2.36,2.36,0,0,1-.91-2.65l1.6-5a2.3,2.3,0,0,1,.64-1l17.88-16.54c.5-.48.56-.22,1.25-.14l14,1.74a2.34,2.34,0,0,1,2,1.85l1.3,6.26A2.34,2.34,0,0,1,233.11,476.05Z"/><polygon class="cls-5" points="206.97 472.64 190.36 466.97 191.59 447.03 210.21 449.57 206.97 472.64"/><path class="cls-7" d="M130.86,449.93a4.09,4.09,0,0,0,4.25,4.65l106.07-5,50.16-2.37a4.1,4.1,0,0,0,3.79-5.07L256.27,284.5l-.06-.29-4.54-26.44a4.09,4.09,0,0,0-4.47-3.38l-87.82,9.39a4.1,4.1,0,0,0-3.63,3.52Z"/><path class="cls-6" d="M206.25,486.43l-28.5-.37a3.51,3.51,0,0,1-.65-.09l-6.38-1.66a2.72,2.72,0,0,1-1.76-1.43L167,479a2.72,2.72,0,0,1,1-3.52l11.14-6.78a2.92,2.92,0,0,1,1.12-.38l10.1-1.11a2.7,2.7,0,0,1,1.35.2l14.73,6.23a2.74,2.74,0,0,1,1.24,1l2.41,3.78a2.73,2.73,0,0,1,.22,2.5l-1.58,3.82A2.73,2.73,0,0,1,206.25,486.43Z"/><path class="cls-8" d="M233.92,136.09l35.41,4.13a9.67,9.67,0,0,1,7.67,5.55l35.89,77.89h0l-58,62.43L236.3,267.23l42.21-50.38-18.62-34L245.49,239l4,17.7-93.32,7.44-10-74.5-39.83,57.87L34.72,230.76,39,205.28l55.15,10.21,28.37-65.91a9.73,9.73,0,0,1,6.67-5.59l34.15-8.08,4.23,21,28.62-16.34,34,16.34,3.75-20.85h0"/><path class="cls-5" d="M188.4,45.77l8.1,77.42c.19,1.82.61,3-1.12,2.33l-19.81-6.15-25.92-16.2a3.23,3.23,0,0,1-1.51-2.55l-1.95-33.4L188.4,45.77"/><polygon class="cls-9" points="196.15 140.6 196.15 140.6 167.34 156.01 163.3 135.91 177.15 134.47 196.15 140.6"/><polygon class="cls-9" points="196.15 140.6 196.15 140.6 230.48 155.22 233.79 136.5 217.62 135 196.15 140.6"/><polygon class="cls-9" points="196.15 140.6 198.94 141.94 198.62 162.38 191.47 162.38 191.47 143.1 196.15 140.6"/><polygon class="cls-5" points="38.96 205.28 33.96 196.68 26.81 190.55 23.55 193.3 28.72 198.98 31.15 205.36 23.23 201.15 13.21 191.96 7.6 192.98 3.13 195.98 0 200.38 0.13 206.38 9.64 214.87 20.23 220.75 35.9 223.71 38.96 205.28"/></g><polyline class="cls-10" points="187.72 45.62 240.15 56.17 234.7 6.47 188.75 0 187.72 45.62"/><path class="cls-11" d="M240.34,56.07l27.78-15a.15.15,0,0,0,0-.23L235,6.77a.15.15,0,0,0-.25.12L240.13,56A.14.14,0,0,0,240.34,56.07Z"/><path class="cls-12" d="M245.24,95.19l-5.07-38.87a.22.22,0,0,1,.11-.22l27.76-15a.21.21,0,0,1,.31.14l14.53,67a.22.22,0,0,1-.28.25L245.38,95.36A.19.19,0,0,1,245.24,95.19Z"/><polygon class="cls-13" points="251.03 138.11 217.62 135 216.55 113.67 245.25 95.32 251.03 138.11"/></g><g id="레이어_3" data-name="레이어 3"><path class="cls-14" d="M188.74,0l-1,45.62-41.53,21.6L136,25.51a1.17,1.17,0,0,1,.66-1.35Z"/><polygon class="cls-15" points="148.23 102.28 148.23 139.48 163.3 135.91 177.15 134.47 177.15 120.04 148.23 102.28"/><path class="cls-16" d="M146.19,67.22l2,35.06-23.82,14.44,11.2-91a.21.21,0,0,1,.42,0Z"/></g></g></svg>