<svg xmlns="http://www.w3.org/2000/svg" viewBox="0 0 374.17 514.15"><defs><style>.cls-1{fill:#f8c5a9;}.cls-2{fill:#2d2c54;}.cls-3{fill:#5a4a43;}.cls-4{fill:#dba696;}.cls-5{fill:#3f332e;}.cls-6{fill:#463936;}.cls-7{fill:#4b3d3a;}.cls-8{fill:#63514e;}.cls-9{fill:#6a5956;}.cls-10{fill:#d8b5b2;}.cls-11{fill:#e9c6ae;}.cls-12,.cls-16{fill:#bbbaca;stroke-miterlimit:10;}.cls-12{stroke:#070102;}.cls-13{fill:#040000;}.cls-14{fill:#161b3d;}.cls-15{fill:#1e2854;}.cls-16{stroke:#060001;}</style></defs><g id="레이어_2" data-name="레이어 2"><g id="레이어_1-2" data-name="레이어 1"><g id="레이어_2-2" data-name="레이어 2"><g id="레이어_3" data-name="레이어 3"><polyline class="cls-1" points="108.67 123.28 90.67 114.76 90.67 82.37 101.17 82.37 101.17 62.48 105.29 52.82 130.79 35.49 163.42 30.38 197.92 51.12 195.29 109.08 192.67 114.76 176.54 128.97 133.35 132.38 108.67 123.28"/></g><g id="레이어_1-2-2" data-name="레이어 1-2"><polyline class="cls-2" points="218.35 149.37 279.86 232.77 319.61 177.12 341.36 207.12 279.86 286.59 218.9 224.75 218.35 149.37"/><polyline class="cls-2" points="124.42 148.62 68.17 160.14 80.47 297.07 225.59 292 218.89 149.88 168.25 149.88 124.42 148.62"/><polygon class="cls-3" points="101.17 99 77.92 97.69 68.17 48.75 80.21 20.98 108.67 8.25 122.17 13.13 131.54 0 170.92 0 208.79 23.25 211.79 61.88 197.92 82.13 197.92 57.75 163.42 30.38 130.79 37.13 105.29 60 101.17 72.75 101.17 99"/><polyline class="cls-4" points="165.8 149.81 122.17 148.75 122.17 128.53 149.19 131.13 166.23 129.78 166.23 149.37"/><polyline class="cls-5" points="122.17 13.13 139.98 21.75 106.42 32.39 80.21 20.98 108.67 8.25"/><polygon class="cls-6" points="139.98 21.75 139.98 35.22 130.79 37.13 113.39 52.74 106.42 32.39 139.98 21.75"/><polygon class="cls-7" points="68.17 48.75 101.17 72.75 101.17 99 77.92 97.69 68.17 48.75"/><polygon class="cls-7" points="208.79 23.25 170.92 18 163.42 30.38 186.1 48.38 208.79 23.25"/><polygon class="cls-7" points="197.92 57.75 211.79 61.88 197.92 82.13 197.92 57.75"/><polygon class="cls-8" points="139.98 21.75 170.92 18 163.42 30.38 139.98 35.22 139.98 21.75"/><polygon class="cls-9" points="170.92 18 161.17 0 170.92 0 208.79 23.25 170.92 18"/><polyline class="cls-3" points="80.21 20.98 68.17 48.75 101.17 72.75 105.29 60 113.39 52.74 106.42 32.39 80.21 20.98"/><polygon class="cls-10" points="148.54 131 122.17 128.53 90.67 114.76 90.67 98.41 101.17 99 101.17 72.75 105.29 60 130.79 37.13 139.98 35.22 149.82 33.19 148.54 131"/><polyline class="cls-2" points="73.4 161.38 73.36 223.97 51.19 249.38 90.78 313.86 65.17 339.36 0 250.11 68.7 160.14"/><polygon class="cls-11" points="322.91 181.5 334.71 171.38 342.66 167.32 346.73 170.63 341.09 173.63 336.11 178.88 348.54 174.83 360.96 167 366.57 168.03 371.04 171.03 374.17 175.43 374.04 181.43 364.53 189.92 353.94 195.79 337.13 201.12 322.91 181.5"/></g><g id="레이어_2-2-2" data-name="레이어 2-2"><polygon class="cls-12" points="109.29 487.58 124.35 513.53 56.99 505.05 63.54 477.95 109.29 487.58"/><polyline class="cls-13" points="80.96 293.32 57.95 480.05 120.68 490.2 154.89 359.36 154.89 293.7 85.42 293.32"/><polygon class="cls-13" points="154.89 359.23 196.93 486.23 255.77 478.12 225.59 292.13 154.89 293.56 154.89 359.23"/><polygon class="cls-14" points="149.82 149.81 218.89 149.88 225.59 292.13 154.89 293.56 149.82 149.81"/><polygon class="cls-15" points="218.89 149.88 222.59 228.49 257.62 202.62 218.89 149.88"/><polygon class="cls-16" points="249.88 478.59 272.91 497.83 206.71 512.9 203.59 485.19 249.88 478.59"/></g></g></g></g></svg>