<svg xmlns="http://www.w3.org/2000/svg" viewBox="0 0 374.2 514.12"><defs><style>.cls-1{fill:#f8c5a9;}.cls-2{fill:#2d2c54;}.cls-3{fill:#5a4a43;}.cls-4{fill:#dba696;}.cls-5{fill:#3f332e;}.cls-6{fill:#463936;}.cls-7{fill:#4b3d3a;}.cls-8{fill:#63514e;}.cls-9{fill:#6a5956;}.cls-10{fill:#d8b5b2;}.cls-11{fill:#e9c6ae;}.cls-12,.cls-16{fill:#bbbaca;stroke-miterlimit:10;}.cls-12{stroke:#070102;}.cls-13{fill:#040000;}.cls-14{fill:#161b3d;}.cls-15{fill:#1e2854;}.cls-16{stroke:#060001;}</style></defs><g id="레이어_2" data-name="레이어 2"><g id="레이어_1-2" data-name="레이어 1"><g id="레이어_2-2" data-name="레이어 2"><g id="레이어_3" data-name="레이어 3"><polyline class="cls-1" points="265.5 123.3 240.8 132.4 197.7 129 181.5 114.8 178.9 109.1 176.3 51.1 210.8 30.4 243.4 35.5 268.9 52.8 273 62.5 273 82.4 283.5 82.4 283.5 114.8 265.5 123.3"/></g><g id="레이어_1-2-2" data-name="레이어 1-2"><polyline class="cls-2" points="155.8 149.4 155.3 224.8 94.3 286.6 32.8 207.1 54.6 177.1 94.3 232.8 155.8 149.4"/><polyline class="cls-2" points="249.8 148.6 205.9 149.9 155.3 149.9 148.6 292 293.7 297.1 306 160.1 249.8 148.6"/><polygon class="cls-3" points="273 72.8 268.9 60 243.4 37.1 210.8 30.4 176.3 57.8 176.3 82.1 162.4 61.9 165.4 23.3 203.3 0 242.7 0 252 13.1 265.5 8.3 294 21 306 48.8 296.3 97.7 273 99 273 72.8"/><polyline class="cls-4" points="208 149.4 208 129.8 225 131.1 252 128.5 252 148.8 208.4 149.8"/><polyline class="cls-5" points="265.5 8.3 294 21 267.8 32.4 234.2 21.8 252 13.1"/><polygon class="cls-6" points="267.8 32.4 260.8 52.7 243.4 37.1 234.2 35.2 234.2 21.8 267.8 32.4"/><polygon class="cls-7" points="296.3 97.7 273 99 273 72.8 306 48.8 296.3 97.7"/><polygon class="cls-7" points="188.1 48.4 210.8 30.4 203.3 18 165.4 23.3 188.1 48.4"/><polygon class="cls-7" points="176.3 82.1 162.4 61.9 176.3 57.8 176.3 82.1"/><polygon class="cls-8" points="234.2 35.2 210.8 30.4 203.3 18 234.2 21.8 234.2 35.2"/><polygon class="cls-9" points="165.4 23.3 203.3 0 213 0 203.3 18 165.4 23.3"/><polyline class="cls-3" points="294 21 267.8 32.4 260.8 52.7 268.9 60 273 72.8 306 48.8 294 21"/><polygon class="cls-10" points="224.4 33.2 234.2 35.2 243.4 37.1 268.9 60 273 72.8 273 99 283.5 98.4 283.5 114.8 252 128.5 225.7 131 224.4 33.2"/><polyline class="cls-2" points="305.5 160.1 374.2 250.1 309 339.4 283.4 313.9 323 249.4 300.8 224 300.8 161.4"/><polygon class="cls-11" points="37.1 201.1 20.3 195.8 9.7 189.9 0.2 181.4 0 175.4 3.2 171 7.6 168 13.2 167 25.7 174.8 38.1 178.9 33.1 173.6 27.5 170.6 31.5 167.3 39.5 171.4 51.3 181.5 37.1 201.1"/></g><g id="레이어_2-2-2" data-name="레이어 2-2"><polygon class="cls-12" points="310.7 478 317.2 505 249.9 513.5 264.9 487.6 310.7 478"/><polyline class="cls-13" points="288.8 293.3 219.3 293.7 219.3 359.4 253.5 490.2 316.2 480 293.2 293.3"/><polygon class="cls-13" points="219.3 293.6 148.6 292.1 118.4 478.1 177.3 486.2 219.3 359.2 219.3 293.6"/><polygon class="cls-14" points="219.3 293.6 148.6 292.1 155.3 149.9 224.4 149.8 219.3 293.6"/><polygon class="cls-15" points="116.6 202.6 151.6 228.5 155.3 149.9 116.6 202.6"/><polygon class="cls-16" points="170.6 485.2 167.5 512.9 101.3 497.8 124.3 478.6 170.6 485.2"/></g></g></g></g></svg>