<svg xmlns="http://www.w3.org/2000/svg" viewBox="0 0 374.17 520.13"><defs><style>.cls-1{fill:#f4c2a7;}.cls-2{fill:#2c2b52;}.cls-3{fill:#5a4a43;}.cls-4{fill:#d5a393;}.cls-5{fill:#3f332e;}.cls-6{fill:#463936;}.cls-7{fill:#4b3d3a;}.cls-8{fill:#63514e;}.cls-9{fill:#6a5956;}.cls-10{fill:#d5b3b0;}.cls-11{fill:#e5c3ac;}.cls-12{fill:#bab9c8;stroke:#040000;stroke-miterlimit:10;}.cls-13{fill:#070001;}.cls-14{fill:#151a3c;}.cls-15{fill:#1d2752;}</style></defs><g id="레이어_2" data-name="레이어 2"><g id="레이어_1-2" data-name="레이어 1"><g id="레이어_2-2" data-name="레이어 2"><g id="레이어_3" data-name="레이어 3"><polyline class="cls-1" points="265.5 123.28 283.5 114.76 283.5 82.37 273 82.37 273 62.48 268.88 52.82 243.38 35.49 210.75 30.38 176.25 51.12 178.88 109.08 181.5 114.76 197.63 128.97 240.82 132.38 265.5 123.28"/></g><g id="레이어_1-2-2" data-name="레이어 1-2"><polyline class="cls-2" points="155.82 149.37 94.31 232.77 54.56 177.12 32.81 207.12 94.31 286.59 155.27 224.75 155.82 149.37"/><polyline class="cls-2" points="249.75 148.62 306 160.14 293.7 297.07 148.58 292 155.28 149.88 205.92 149.88 249.75 148.62"/><polygon class="cls-3" points="273 99 296.25 97.69 306 48.75 293.96 20.98 265.5 8.25 252 13.13 242.63 0 203.25 0 165.38 23.25 162.38 61.88 176.25 82.13 176.25 57.75 210.75 30.38 243.38 37.13 268.88 60 273 72.75 273 99"/><polyline class="cls-4" points="208.37 149.81 252 148.75 252 128.53 224.98 131.13 207.94 129.78 207.94 149.37"/><polyline class="cls-5" points="252 13.13 234.19 21.75 267.75 32.39 293.96 20.98 265.5 8.25"/><polygon class="cls-6" points="234.19 21.75 234.19 35.22 243.38 37.13 260.78 52.74 267.75 32.39 234.19 21.75"/><polygon class="cls-7" points="306 48.75 273 72.75 273 99 296.25 97.69 306 48.75"/><polygon class="cls-7" points="165.38 23.25 203.25 18 210.75 30.38 188.07 48.38 165.38 23.25"/><polygon class="cls-7" points="176.25 57.75 162.38 61.88 176.25 82.13 176.25 57.75"/><polygon class="cls-8" points="234.19 21.75 203.25 18 210.75 30.38 234.19 35.22 234.19 21.75"/><polygon class="cls-9" points="203.25 18 213 0 203.25 0 165.38 23.25 203.25 18"/><polyline class="cls-3" points="293.96 20.98 306 48.75 273 72.75 268.88 60 260.78 52.74 267.75 32.39 293.96 20.98"/><polygon class="cls-10" points="225.63 131 252 128.53 283.5 114.76 283.5 98.41 273 99 273 72.75 268.88 60 243.38 37.13 234.19 35.22 224.35 33.19 225.63 131"/><polyline class="cls-2" points="300.77 161.38 300.81 223.97 322.98 249.38 283.39 313.86 309 339.36 374.17 250.11 305.47 160.14"/><polygon class="cls-11" points="51.26 181.5 39.46 171.38 31.51 167.32 27.44 170.63 33.08 173.63 38.06 178.88 25.63 174.83 13.21 167 7.6 168.03 3.13 171.03 0 175.43 0.13 181.43 9.64 189.92 20.23 195.79 37.04 201.12 51.26 181.5"/></g><g id="레이어_2-2-2" data-name="레이어 2-2"><polygon class="cls-12" points="212.62 485 205.31 519.41 270.36 499.97 259.45 474.31 212.62 485"/><polygon class="cls-12" points="182.84 480.18 160.24 499.92 226.75 513.53 229.29 485.47 182.84 480.18"/><polyline class="cls-13" points="293.21 293.32 264.28 486.59 203.53 486.59 219.28 359.36 219.28 293.7 288.75 293.32"/><polygon class="cls-13" points="219.28 359.23 229.29 485.47 171.65 486.59 148.58 292.13 219.28 293.56 219.28 359.23"/><polygon class="cls-14" points="224.35 149.81 155.28 149.88 148.58 292.13 219.28 293.56 224.35 149.81"/><polygon class="cls-15" points="155.28 149.88 151.58 228.49 116.55 202.62 155.28 149.88"/></g></g></g></g></svg>