<svg xmlns="http://www.w3.org/2000/svg" viewBox="0 0 360.08 245.9"><defs><style>.cls-1{fill:#e8e8e8;}.cls-2{fill:#d2c6e1;}.cls-3{fill:#a8a19d;}.cls-4{fill:#fff;}.cls-5{fill:#e4dad8;}.cls-6{fill:#b9b9ba;}.cls-7,.cls-8{fill:#666;stroke-miterlimit:10;}.cls-7{stroke:#666;}.cls-8{stroke:#8c8c8c;}.cls-9{fill:#040000;}.cls-10{fill:#e7251e;}.cls-11{fill:#5cb976;}.cls-12{fill:#182347;}.cls-13{fill:#f5cd1e;}.cls-14{fill:#cbc5c3;}</style></defs><g id="레이어_2" data-name="레이어 2"><g id="레이어_2-2" data-name="레이어 2"><rect class="cls-1" x="0.33" y="10" width="345.51" height="235.52"/><rect class="cls-2" x="17.94" y="25.15" width="310.91" height="206.18"/><rect class="cls-3" x="41.76" y="76.74" width="50.98" height="63.85"/><rect class="cls-4" x="35.76" y="73.19" width="53.23" height="63.85"/><rect class="cls-3" x="182.7" y="126.74" width="50.98" height="74.49"/><rect class="cls-4" x="176.33" y="122.97" width="53.23" height="74.49"/><rect class="cls-3" x="265.41" y="92.04" width="50.98" height="63.85"/><rect class="cls-4" x="259.03" y="90.04" width="53.23" height="63.85"/><polygon class="cls-5" points="65.41 73.19 54.05 137.03 88.99 137.03 88.99 73.19 65.41 73.19"/><polygon class="cls-6" points="345.84 10 0.33 10 17.68 0.41 359.8 0.41 345.84 10"/><polygon class="cls-6" points="358.75 233.13 345.84 245.52 345.84 10 359.8 0.41 358.75 233.13"/><polygon class="cls-5" points="205.98 122.97 194.62 197.45 229.56 197.45 229.56 122.97 205.98 122.97"/><polygon class="cls-5" points="289.54 90.04 278.18 153.89 313.12 153.89 313.12 90.04 289.54 90.04"/><rect class="cls-3" x="122" y="53.28" width="40.04" height="49.87"/><rect class="cls-4" x="117" y="50.33" width="41.8" height="49.87"/><polygon class="cls-5" points="140.96 50.33 132.04 100.19 159.47 100.19 159.47 50.33 140.96 50.33"/><line class="cls-7" x1="0.33" y1="10" x2="17.68" y2="25.15"/><line class="cls-7" x1="328.6" y1="230.36" x2="345.95" y2="245.52"/><line class="cls-7" x1="345.84" y1="10" x2="328.6" y2="25.15"/><line class="cls-7" x1="0.38" y1="245.52" x2="17.63" y2="230.36"/><line class="cls-8" x1="359.8" y1="0.41" x2="345.84" y2="10"/><path class="cls-9" d="M55.63,112.52q8.61-.33,17.24-.12a2.5,2.5,0,0,0,0-5q-8.62-.21-17.24.12a2.5,2.5,0,0,0,0,5Z"/><path class="cls-9" d="M135.07,65.22h7.28a2.5,2.5,0,0,0,0-5h-7.28a2.5,2.5,0,0,0,0,5Z"/><path class="cls-9" d="M128.18,74.64h24.89c3.21,0,3.22-5,0-5H128.18c-3.22,0-3.22,5,0,5Z"/><path class="cls-9" d="M130.24,87.2h15.32a2.5,2.5,0,0,0,0-5H130.24a2.5,2.5,0,0,0,0,5Z"/><path class="cls-9" d="M198.24,140.57h11.49a2.5,2.5,0,0,0,0-5H198.24a2.5,2.5,0,0,0,0,5Z"/><path class="cls-9" d="M190.59,168.87h32.54c3.22,0,3.22-5,0-5H190.59c-3.22,0-3.22,5,0,5Z"/><path class="cls-9" d="M280.55,106.52h10.72a2.5,2.5,0,0,0,0-5H280.55a2.5,2.5,0,0,0,0,5Z"/><path class="cls-9" d="M269.83,119.92h32.54c3.22,0,3.23-5,0-5H269.83c-3.22,0-3.22,5,0,5Z"/><path class="cls-9" d="M270.6,130.42h28.71c3.22,0,3.22-5,0-5H270.6c-3.22,0-3.22,5,0,5Z"/><rect class="cls-10" x="189.24" y="116.97" width="28.71" height="8.96"/><rect class="cls-11" x="271.55" y="83.53" width="28.71" height="8.96"/><polygon class="cls-12" points="127.91 47.14 147.9 47.14 147.9 52.73 127.9 52.73 127.91 47.14"/><path class="cls-9" d="M50.3,88.54H73.53c1.35,0,3.1-.38,3.79-1.7s-.54-2.12-1.68-2.12H52.41c-1.35,0-3.09.37-3.79,1.69s.54,2.13,1.68,2.13Z"/><path class="cls-9" d="M48.59,102.51q15.44-.15,30.88-.05c1.32,0,3-1,3.17-2.45s-1.5-2.07-2.73-2.08Q64.46,97.82,49,98c-1.32,0-3,1-3.16,2.45s1.5,2.1,2.73,2.09Z"/><path class="cls-9" d="M47.08,122.77l30.12-.17c1.3,0,3-1,3.18-2.42s-1.52-2-2.72-2l-30.11.17c-1.31,0-3,1-3.18,2.41s1.51,2,2.71,2Z"/><rect class="cls-13" x="49.89" y="67.24" width="28.71" height="8.96"/><path class="cls-9" d="M185.35,154.53q15.45-.15,30.89-.05c1.32,0,3-1,3.16-2.44s-1.5-2.08-2.73-2.09q-15.43-.1-30.88,0c-1.32,0-3,1-3.16,2.45s1.49,2.1,2.72,2.09Z"/><path class="cls-9" d="M189.62,183.08q8.63-.33,17.24-.12a2.5,2.5,0,0,0,0-5q-8.62-.21-17.24.12a2.5,2.5,0,0,0,0,5Z"/><path class="cls-9" d="M278.45,143.08h15.31a2.5,2.5,0,0,0,0-5H278.45a2.5,2.5,0,0,0,0,5Z"/><rect class="cls-14" x="78.6" y="68.51" width="1.76" height="4.67"/><rect class="cls-14" x="147.9" y="47.93" width="1.76" height="2.39"/><rect class="cls-14" x="217.96" y="117.99" width="2.33" height="4.97"/><rect class="cls-14" x="300.27" y="84.97" width="2.58" height="5.07"/></g></g></svg>