<?xml version="1.0" encoding="utf-8"?>
<!-- Generator: Adobe Illustrator 25.3.0, SVG Export Plug-In . SVG Version: 6.00 Build 0)  -->
<svg version="1.1" xmlns="http://www.w3.org/2000/svg" xmlns:xlink="http://www.w3.org/1999/xlink" x="0px" y="0px"
	 viewBox="0 0 300 300" style="enable-background:new 0 0 300 300;" xml:space="preserve">
<style type="text/css">
	.st0{fill:url(#SVGID_1_);}
	.st1{fill:#143566;}
	.st2{fill:#0D2A47;}
	.st3{fill:#123259;}
	.st4{fill:#1A3D5B;}
	.st5{fill:#446184;}
	.st6{fill:#627689;}
	.st7{fill:#48596D;}
	.st8{fill:#618FAF;}
	.st9{fill:#214560;}
	.st10{fill:#A0A6BC;}
	.st11{fill:#6CA2BA;}
	.st12{fill:#C8D7ED;}
	.st13{fill:#466B82;}
	.st14{fill:#1D4A77;}
	.st15{fill:#3C677F;}
	.st16{fill:#628CA3;}
	.st17{fill:#375472;}
	.st18{fill:#C4C9D6;}
	.st19{fill:#73859B;}
	.st20{fill:#4B7568;}
	.st21{fill:#8CBFD1;}
	.st22{fill:#668EB2;}
	.st23{fill:#88AFBF;}
	.st24{fill:#184366;}
	.st25{fill:#B3C8DD;}
	.st26{fill:#7D9DA0;}
	.st27{fill:#B8BECC;}
	.st28{fill:#96AF74;}
	.st29{fill:#B6C2DB;}
	.st30{fill:#1A4375;}
	.st31{fill:#B6BC7E;}
	.st32{fill:#88995F;}
	.st33{fill:#8AA8AA;}
	.st34{fill:#BACACC;}
	.st35{fill:#CAD8B6;}
	.st36{fill:#6B92C1;}
	.st37{fill:#2F628C;}
	.st38{fill:#44588E;}
	.st39{fill:#507C79;}
	.st40{fill:#A4B277;}
	.st41{fill:#578E8C;}
	.st42{fill:#BCB88B;}
	.st43{fill:#6690B2;}
	.st44{fill:#7494AF;}
	.st45{fill:#AEBA8A;}
	.st46{fill:#7E895C;}
	.st47{fill:#898452;}
	.st48{fill:#89824E;}
	.st49{fill:#B8CC9B;}
	.st50{fill:#6AA09C;}
	.st51{fill:#5072A3;}
	.st52{fill:#B5B17C;}
	.st53{fill:#A39D66;}
	.st54{fill:#C6CC9E;}
	.st55{fill:#A39C69;}
	.st56{fill:#CAD6EA;}
	.st57{fill:#DDD3A8;}
	.st58{fill:#8A98B2;}
	.st59{fill:#83A8CC;}
	.st60{fill:#7F93B2;}
	.st61{fill:#6C82A8;}
	.st62{fill:#7193AA;}
	.st63{fill:#ADC4E0;}
	.st64{fill:#376291;}
	.st65{fill:#C1D1EA;}
	.st66{fill:#2F5584;}
	.st67{fill:#466F9B;}
</style>
<g id="레이어_2">
	<linearGradient id="SVGID_1_" gradientUnits="userSpaceOnUse" x1="49.4815" y1="92.8933" x2="272.2592" y2="221.5141">
		<stop  offset="0" style="stop-color:#FFFFFF;stop-opacity:0"/>
		<stop  offset="1" style="stop-color:#00126A;stop-opacity:0.2"/>
	</linearGradient>
	<ellipse class="st0" cx="160.9" cy="157.2" rx="128.2" ry="129.7"/>
</g>
<g id="레이어_4">
	<line x1="132.3" y1="136.6" x2="134" y2="139"/>
	<g>
		<g id="XMLID_1_">
			<g>
				<path class="st1" d="M282.2,122.7c1.8,8.8,2.8,18,2.8,27.3c0,54.4-32.2,101.3-78.6,122.7l23.6-19.5l4.1-3.4l10.7-14.5l21-29
					l8.3-25.5l4.4-43L282.2,122.7z"/>
				<polygon class="st2" points="282.2,122.7 282.2,122.7 278.5,137.8 262.2,126.7 247.1,116.5 270.2,103.9 282.2,122.7 				"/>
				<path class="st3" d="M282.2,122.7l-12-18.8l-2.8-12.6l6.7,5.4l0,0C277.6,104.9,280.4,113.6,282.2,122.7z"/>
				<polygon class="st4" points="278.5,137.8 274.1,180.8 255.5,153.4 250.4,145.8 262.2,126.7 				"/>
				<polygon class="st5" points="255.5,153.4 274.1,180.8 257.5,167.7 244.4,160.3 				"/>
				<polygon class="st6" points="274.1,180.8 265.8,206.2 247.8,213.8 263.4,195.6 257.5,180.8 				"/>
				<polygon class="st7" points="274.1,180.8 257.5,180.8 242.1,180.8 257.5,167.7 				"/>
				<path class="st1" d="M274,96.7l-6.7-5.4l-2.9-12.8C268.1,84.3,271.3,90.3,274,96.7z"/>
				<polygon class="st1" points="267.4,91.3 270.2,103.9 247.1,116.5 244.7,99.3 235.8,75.3 262.2,87.1 				"/>
				<path class="st3" d="M264.5,78.5l2.9,12.8l-5.2-4.2l-26.4-11.9l6.9-16.3l2-4.8l0.1-0.1C252.3,61.3,258.9,69.6,264.5,78.5z"/>
				<polygon class="st5" points="265.8,206.2 244.7,235.3 233.8,233.8 217.5,237.6 240.1,222.8 247.8,213.8 				"/>
				<polygon class="st8" points="257.5,180.8 263.4,195.6 247.8,213.8 240.1,222.8 247.7,204.5 253.9,189.4 				"/>
				<polygon class="st9" points="262.2,126.7 250.4,145.8 239.7,130.4 247.1,116.5 				"/>
				<polygon class="st6" points="257.5,180.8 253.9,189.4 242.1,180.8 				"/>
				<polygon class="st10" points="257.5,167.7 242.1,180.8 244.4,160.3 				"/>
				<polygon class="st11" points="250.4,145.8 255.5,153.4 244.4,160.3 229.9,166.2 				"/>
				<polygon class="st7" points="253.9,189.4 247.7,204.5 242.1,201.5 242.1,180.8 				"/>
				<polygon class="st5" points="239.7,130.4 250.4,145.8 229.9,166.2 231.7,147 				"/>
				<polygon class="st12" points="247.7,204.5 240.1,222.8 222.8,227.6 217.5,192.3 242.1,201.5 				"/>
				<polygon class="st13" points="244.7,99.3 247.1,116.5 239.7,130.4 231.7,147 235.8,117.9 				"/>
				<path class="st14" d="M244.9,54l-0.1,0.1l-2,4.8l-0.6-0.3l-12.1,2.4l-7.1-24.8C230.8,41.4,238.2,47.3,244.9,54z"/>
				<polygon class="st2" points="235.8,75.3 244.7,99.3 231.1,103.1 233.6,88.6 				"/>
				<polygon class="st15" points="244.7,99.3 235.8,117.9 209.8,107.3 231.1,103.1 				"/>
				<polygon class="st16" points="244.7,235.3 234.1,249.8 229.9,253.2 222.8,251 233.8,243.3 				"/>
				<polygon class="st17" points="244.7,235.3 233.8,243.3 217.5,237.6 233.8,233.8 				"/>
				<polygon class="st18" points="244.4,160.3 242.1,180.8 229.9,166.2 				"/>
				<polygon class="st1" points="242.7,59 235.8,75.3 203.5,46.8 222.8,36.3 222.8,36.3 229.9,61.1 242.1,58.7 				"/>
				<polygon class="st19" points="242.1,180.8 242.1,201.5 217.5,192.3 				"/>
				<polygon class="st11" points="229.9,166.2 242.1,180.8 217.5,192.3 				"/>
				<polygon class="st6" points="240.1,222.8 217.5,237.6 222.8,227.6 				"/>
				<polygon class="st14" points="235.8,75.3 233.6,88.6 229.3,83 222.8,89.2 213.8,78.5 				"/>
				<polygon class="st11" points="235.8,117.9 231.7,147 229.9,166.2 203.5,130.4 				"/>
				<polygon class="st20" points="235.8,75.3 213.8,78.5 213.6,78.4 216.9,71.1 				"/>
				<polygon class="st2" points="235.8,75.3 216.9,71.1 195.8,66.4 200.7,54.1 203.5,46.8 				"/>
				<polygon class="st8" points="235.8,117.9 203.5,130.4 209.8,107.3 				"/>
				<polygon class="st5" points="233.8,243.3 222.8,251 208.3,239.1 212.4,235.5 217.5,237.6 				"/>
				<polygon class="st13" points="229.3,83 233.6,88.6 231.1,103.1 209.8,107.3 209.8,100.2 222.8,89.2 				"/>
				<polygon class="st1" points="203.5,130.4 229.9,166.2 203.5,163 200.6,157.3 200.6,157.3 203.5,151.2 197.6,139.9 				"/>
				<polygon class="st21" points="229.9,166.2 217.5,192.3 204.8,183.7 204.3,176 204.8,176 				"/>
				<path class="st22" d="M229.9,253.2l-23.6,19.5c-0.5,0.2-1.1,0.5-1.6,0.7l18-22.4L229.9,253.2z"/>
				<polygon class="st8" points="229.9,166.2 204.8,176 204.3,176 203.5,163 				"/>
				<polygon class="st8" points="213.8,78.5 222.8,89.2 209.8,87.1 213.6,78.4 				"/>
				<polygon class="st23" points="217.5,192.3 222.8,227.6 217.5,237.6 212.4,235.5 202.1,231.1 				"/>
				<polygon class="st23" points="222.8,251 204.8,273.4 208.3,239.1 				"/>
				<path class="st24" d="M222.8,36.3l-19.3,10.5l-5-9.9l11.3-4.6L192,21.7C202.9,25.2,213.3,30.2,222.8,36.3z"/>
				<polygon class="st20" points="222.8,89.2 209.8,100.2 209.8,107.3 175.1,116.5 209.8,87.1 				"/>
				<polygon class="st18" points="217.5,192.3 202.1,231.1 181,208.6 194.1,202.7 187.8,193.5 199.1,200.3 				"/>
				<polygon class="st25" points="217.5,192.3 199.1,200.3 199.1,184.9 				"/>
				<polygon class="st19" points="217.5,192.3 199.1,184.9 204.8,183.7 				"/>
				<polygon class="st26" points="216.9,71.1 213.6,78.4 209.8,87.1 179.2,80.9 177.8,61.1 195.8,66.4 				"/>
				<polygon class="st27" points="212.4,235.5 208.3,239.1 150.5,267.9 130.1,251.6 202.1,231.1 				"/>
				<polygon class="st27" points="209.8,107.3 203.5,130.4 175.1,116.5 				"/>
				<path class="st14" d="M209.8,32.3l-11.3,4.6L177.8,27l-20.4-10.7l0.1-1.1c12,0.6,23.6,2.9,34.6,6.4c0,0,0,0,0,0L209.8,32.3z"/>
				<polygon class="st28" points="209.8,87.1 175.1,116.5 154.4,75.3 131.3,55.9 160.9,59.9 158.8,71.1 179.2,80.9 				"/>
				<polygon class="st29" points="208.3,239.1 204.8,273.4 195.9,272.5 150.5,267.9 				"/>
				<polygon class="st30" points="204.3,176 204.8,183.7 188.1,169.2 203.5,163 				"/>
				<polygon class="st31" points="204.8,183.7 199.1,184.9 188.1,186.1 188.1,169.2 				"/>
				<path class="st5" d="M195.9,272.5l8.9,0.9c-10.8,4.8-22.4,8.2-34.4,10.1l25.5-10.1L195.9,272.5z"/>
				<polygon class="st3" points="198.5,36.9 203.5,46.8 188.1,35 177.8,27 				"/>
				<polygon class="st14" points="203.5,46.8 200.7,54.1 195.8,66.4 177.8,61.1 188.1,35 				"/>
				<polygon class="st28" points="203.5,130.4 197.6,139.9 194.4,145.2 181,145.2 				"/>
				<polygon class="st32" points="197.6,139.9 203.5,151.2 200.6,157.3 194.4,145.2 				"/>
				<polygon class="st28" points="200.6,157.3 203.5,163 188.1,169.2 182.1,150 173.9,150 162.1,153.8 170.4,130.4 174.5,134.8 
					181,145.2 194.4,145.2 200.6,157.3 				"/>
				<polygon class="st33" points="203.5,130.4 181,145.2 174.5,134.8 				"/>
				<polygon class="st34" points="203.5,130.4 174.5,134.8 170.4,130.4 175.1,116.5 				"/>
				<polygon class="st10" points="181,208.6 202.1,231.1 130.1,251.6 				"/>
				<polygon class="st35" points="199.1,184.9 199.1,200.3 187.8,193.5 171.2,186.7 179.2,178.1 182.1,173.1 188.1,169.2 
					188.1,186.1 				"/>
				<polygon class="st36" points="195.9,272.5 195.8,273.4 170.4,283.5 150.5,267.9 				"/>
				<polygon class="st14" points="187.8,193.5 194.1,202.7 184,199 177.4,192.6 				"/>
				<polygon class="st8" points="194.1,202.7 181,208.6 163.5,189.4 171.2,186.7 177.4,192.6 177.4,192.6 184,199 				"/>
				<polygon class="st14" points="182.1,150 188.1,169.2 182.1,173.1 179.2,178.1 168,180.8 162.1,172.8 162.1,153.8 173.9,150 				
					"/>
				<polygon class="st37" points="188.1,35 177.8,61.1 157.9,37.6 177.8,27 				"/>
				<polygon class="st2" points="187.8,193.5 177.4,192.6 177.4,192.6 171.2,186.7 				"/>
				<polygon class="st38" points="163.5,189.4 181,208.6 119.1,208 140.7,185.5 141.3,178.1 				"/>
				<polygon class="st29" points="181,208.6 130.1,251.6 119.1,208 				"/>
				<polygon class="st39" points="177.8,61.1 179.2,80.9 158.8,71.1 				"/>
				<polygon class="st40" points="179.2,178.1 171.2,186.7 163.5,189.4 163.5,183.2 168,180.8 				"/>
				<polygon class="st41" points="157.9,37.6 177.8,61.1 158.8,71.1 160.9,59.9 				"/>
				<polygon class="st8" points="177.8,27 157.9,37.6 131.8,48.9 121.2,22.8 				"/>
				<path class="st17" d="M177.8,27l-56.6-4.1l-19.7,6.7l3.6-6.8c14-5,29.2-7.6,44.9-7.6c2.5,0,4.9,0.1,7.4,0.2l-0.1,1.1L177.8,27z"
					/>
				<polygon class="st32" points="154.4,75.3 175.1,116.5 155.8,106.1 				"/>
				<polygon class="st42" points="175.1,116.5 170.4,130.4 162.1,153.8 162.1,172.8 168,180.8 163.5,183.2 150.5,157.2 155.8,157.2 
					150.5,143.4 162.1,144.1 160.3,122.7 				"/>
				<polygon class="st33" points="175.1,116.5 160.3,122.7 155.8,107.3 155.4,107.1 155.8,106.1 				"/>
				<path class="st43" d="M150.5,267.9l19.9,15.6c-6.6,1-13.4,1.5-20.4,1.5c-6,0-11.8-0.4-17.6-1.1v0l8.9-6.8L150.5,267.9z"/>
				<polygon class="st32" points="163.5,183.2 163.5,189.4 141.3,178.1 143.1,170.5 				"/>
				<polygon class="st40" points="150.5,157.2 163.5,183.2 143.1,170.5 				"/>
				<polygon class="st33" points="160.3,122.7 162.1,144.1 150.5,143.4 				"/>
				<polygon class="st44" points="157.9,37.6 160.9,59.9 131.8,48.9 				"/>
				<polygon class="st12" points="160.9,59.9 131.3,55.9 130.1,54.8 97.5,37.1 121.2,22.8 131.8,48.9 				"/>
				<polygon class="st28" points="155.8,107.3 160.3,122.7 150.5,143.4 145.2,128.3 155.4,107.1 				"/>
				<polygon class="st45" points="154.4,75.3 155.8,106.1 145.2,80.9 				"/>
				<polygon class="st46" points="145.2,80.9 155.8,106.1 139.2,118.8 143.1,104.6 130.1,103.1 				"/>
				<polygon class="st47" points="155.8,106.1 155.4,107.1 145.2,128.3 139.2,118.8 				"/>
				<polygon class="st48" points="150.5,143.4 155.8,157.2 150.5,157.2 138.3,139.9 138.9,138.9 145.2,128.3 				"/>
				<polygon class="st49" points="154.4,75.3 145.2,80.9 114.6,80.9 117.8,71.1 99.5,65.2 128.2,55.5 131.3,55.9 				"/>
				<polygon class="st42" points="138.3,139.9 150.5,157.2 125.9,160.6 				"/>
				<polygon class="st50" points="150.5,157.2 143.1,170.5 125.9,160.6 				"/>
				<polygon class="st22" points="150.5,267.9 141.3,277.1 112,267.9 				"/>
				<polygon class="st51" points="150.5,267.9 112,267.9 104.3,231.4 130.1,251.6 				"/>
				<polygon class="st52" points="145.2,80.9 130.1,103.1 114.6,80.9 				"/>
				<polygon class="st48" points="139.2,118.8 145.2,128.3 125.6,118.5 130.1,103.1 				"/>
				<polygon class="st53" points="145.2,128.3 138.9,138.9 136.6,137.5 125.6,118.5 				"/>
				<polygon class="st52" points="143.1,104.6 139.2,118.8 130.1,103.1 				"/>
				<polygon class="st41" points="143.1,170.5 141.3,178.1 132.4,169.2 125.9,160.6 				"/>
				<polygon class="st18" points="141.3,178.1 140.7,185.5 101,178.1 132.4,169.2 				"/>
				<path class="st16" d="M141.3,277.1l-8.9,6.8v0c-13.1-1.7-25.6-5.3-37.2-10.5l3.2-9.1l0.2-0.6l13.4,4.2L141.3,277.1z"/>
				<polygon class="st27" points="140.7,185.5 119.1,208 101,178.1 				"/>
				<polygon class="st54" points="138.9,138.9 138.3,139.9 125.9,160.6 117.8,145.5 136.6,137.5 				"/>
				<polygon class="st42" points="125.6,118.5 136.6,137.5 117.8,145.5 				"/>
				<polygon class="st29" points="125.9,160.6 132.4,169.2 101,178.1 90.1,156.2 104.3,124.5 117.8,145.5 				"/>
				<polygon class="st55" points="114.6,80.9 130.1,103.1 105.6,92.2 				"/>
				<polygon class="st52" points="130.1,103.1 125.6,118.5 117.8,145.5 104.3,124.5 104,123.1 				"/>
				<polygon class="st43" points="119.1,208 130.1,251.6 104.3,231.4 				"/>
				<polygon class="st27" points="130.1,54.8 128.2,55.5 99.5,65.2 97.5,37.1 				"/>
				<polygon class="st56" points="130.1,103.1 104,123.1 102.5,114.1 128.2,103.9 				"/>
				<polygon class="st57" points="130.1,103.1 128.2,103.9 91.2,109.1 105.6,92.2 				"/>
				<polygon class="st46" points="128.2,103.9 102.5,114.1 91.2,110.8 90.4,109.8 91.2,109.1 				"/>
				<polygon class="st17" points="121.2,22.8 97.5,37.1 101.5,29.5 				"/>
				<polygon class="st58" points="101,178.1 119.1,208 72.9,202.7 				"/>
				<polygon class="st59" points="119.1,208 104.3,231.4 72.9,202.7 				"/>
				<polygon class="st54" points="117.8,71.1 114.6,80.9 105.6,92.2 99.5,65.2 				"/>
				<polygon class="st36" points="104.3,231.4 112,267.9 78.4,243.3 72.9,202.7 				"/>
				<path class="st8" d="M112,267.9l-13.4-4.2l-37-11.6c-10.5-9.1-19.6-19.9-26.9-31.8l0.6-0.4l17.4,9.4v0l25.8,14L112,267.9z"/>
				<polygon class="st31" points="99.5,65.2 105.6,92.2 91.2,109.1 				"/>
				<path class="st6" d="M105.1,22.7l-3.6,6.8l-4,7.6l-15.1-2.8l-0.5-0.8C89.2,29.1,97,25.5,105.1,22.7z"/>
				<polygon class="st60" points="104,123.1 104.3,124.5 96.8,132.5 102.5,114.1 				"/>
				<polygon class="st58" points="104.3,124.5 90.1,156.2 71.4,161.5 96.8,132.5 				"/>
				<polygon class="st12" points="102.5,114.1 96.8,132.5 71.4,161.5 50.9,145.5 61.6,108.5 63.7,124.5 				"/>
				<polygon class="st27" points="102.5,114.1 63.7,124.5 61.6,108.5 77.6,106.7 72.8,90.7 73.8,89.2 90.4,109.8 91.2,110.8 				"/>
				<polygon class="st61" points="90.1,156.2 101,178.1 72.9,202.7 61,169.5 81.5,173.6 				"/>
				<polygon class="st12" points="97.5,37.1 99.5,65.2 82.4,81.2 73.8,74.1 73.8,48.3 				"/>
				<polygon class="st29" points="99.5,65.2 91.2,109.1 90.4,109.8 73.8,89.2 82.4,81.2 				"/>
				<path class="st56" d="M98.6,263.7l-0.2,0.6l-3.2,9.1C82.9,268,71.6,260.7,61.6,252L98.6,263.7z"/>
				<polygon class="st44" points="97.5,37.1 73.8,48.3 82.4,34.2 				"/>
				<polygon class="st27" points="90.1,156.2 81.5,173.6 61,169.5 71.4,161.5 				"/>
				<path class="st43" d="M81.9,33.4l0.5,0.8l-8.6,14.1L63.7,67L55,54.1C63,46.1,72,39.2,81.9,33.4z"/>
				<polygon class="st43" points="82.4,81.2 73.8,89.2 72.8,90.7 69.9,81.2 73.8,84.2 73.8,74.1 				"/>
				<polygon class="st51" points="72.9,202.7 78.4,243.3 52.6,229.3 52.6,229.3 49.2,217.5 				"/>
				<polygon class="st62" points="72.8,90.7 77.6,106.7 59.8,99.3 59.8,81.2 69.9,81.2 				"/>
				<polygon class="st22" points="77.6,106.7 61.6,108.5 59.8,99.3 				"/>
				<polygon class="st17" points="73.8,74.1 73.8,84.2 69.9,81.2 63.7,67 73.8,48.3 				"/>
				<polygon class="st51" points="61,169.5 72.9,202.7 49.2,183.7 29,167.4 50.9,145.5 				"/>
				<polygon class="st22" points="72.9,202.7 49.2,217.5 49.2,185.8 48.5,185.5 49.2,183.7 				"/>
				<polygon class="st63" points="71.4,161.5 61,169.5 50.9,145.5 				"/>
				<path class="st27" d="M63.7,67l6.2,14.2H59.8l-24-2.7l-0.3-0.2c5.5-8.8,12.1-17,19.4-24.2L63.7,67z"/>
				<polygon class="st64" points="59.8,99.3 61.6,108.5 33.5,114.1 59.8,81.2 				"/>
				<polygon class="st61" points="61.6,108.5 50.9,145.5 33.5,114.1 				"/>
				<polygon class="st61" points="59.8,81.2 33.5,114.1 35.8,78.5 				"/>
				<polygon class="st36" points="49.2,217.5 52.6,229.3 35.2,219.9 41.8,194.4 43.2,199 				"/>
				<polygon class="st8" points="33.5,114.1 50.9,145.5 29,167.4 				"/>
				<polygon class="st7" points="49.2,185.8 49.2,217.5 43.2,199 48.5,185.5 				"/>
				<polygon class="st65" points="49.2,183.7 48.5,185.5 43.2,199 41.8,194.4 29,169.5 28.3,169.2 29,167.4 				"/>
				<polygon class="st27" points="29,169.5 41.8,194.4 20.3,187.5 28.3,169.2 				"/>
				<path class="st22" d="M41.8,194.4l-6.5,25.5l-0.6,0.4c-6.2-10.1-11-21.1-14.4-32.7L41.8,194.4z"/>
				<path class="st66" d="M35.8,78.5l-2.4,35.6l-9.6-12.4c3.1-8.2,7.1-16,11.6-23.3L35.8,78.5z"/>
				<path class="st67" d="M23.9,101.7l9.6,12.4l-17.5,21l-0.2,0C17.1,123.4,19.9,112.2,23.9,101.7z"/>
				<polygon class="st51" points="33.5,114.1 29,167.4 16,135.1 				"/>
				<path class="st22" d="M16,135.1l13,32.3l-0.8,1.8l-8,18.3C16.8,175.6,15,163,15,150c0-5,0.3-10,0.8-14.9L16,135.1z"/>
			</g>
			<g>
			</g>
		</g>
	</g>
</g>
</svg>
