<svg xmlns="http://www.w3.org/2000/svg" viewBox="0 0 317.5 716.75"><defs><style>.cls-1,.cls-5{fill:#fffcf5;}.cls-1,.cls-2,.cls-3,.cls-4{stroke:#000;}.cls-1,.cls-2,.cls-3,.cls-4,.cls-5{stroke-miterlimit:10;stroke-width:0.5px;}.cls-2{fill:#77614d;}.cls-3{fill:#f4d07d;}.cls-4{fill:#ffd97b;}.cls-5{stroke:#fffcf5;}</style></defs><g id="레이어_2" data-name="레이어 2"><g id="레이어_1-2" data-name="레이어 1"><polygon class="cls-1" points="166.25 462.34 166.25 702.34 0.25 617.34 0.25 220.34 317.25 352.34 317.25 502.34 196.25 446.34 166.25 462.34"/><polygon class="cls-2" points="166.25 702.34 166.25 716.34 0.25 631.34 0.25 617.34 166.25 702.34"/><polygon class="cls-3" points="198.75 419.66 198.75 698.58 166.25 716.16 166.25 435.04 198.75 419.66"/><polygon class="cls-4" points="317.25 352.34 317.25 329.34 0.25 198.34 0.25 220.34 317.25 352.34"/><polygon class="cls-1" points="0.25 198.34 0.25 0.34 317.25 99.34 317.25 329.34 0.25 198.34"/><polygon class="cls-5" points="198.25 417.16 165.75 435.04 316.75 506.01 316.75 490.45 198.25 417.16"/><line class="cls-1" x1="166.25" y1="435.04" x2="317.25" y2="506.01"/></g></g></svg>