<svg xmlns="http://www.w3.org/2000/svg" viewBox="0 0 397.01 870.75"><defs><style>.cls-1,.cls-4{fill:#fffcf5;}.cls-1,.cls-2,.cls-3{stroke:#000;}.cls-1,.cls-2,.cls-3,.cls-4{stroke-miterlimit:10;stroke-width:0.5px;}.cls-2{fill:#77614d;}.cls-3{fill:#ffd97b;}.cls-4{stroke:#fffcf5;}</style></defs><g id="레이어_2" data-name="레이어 2"><g id="레이어_1-2" data-name="레이어 1"><polygon class="cls-1" points="0.76 253.34 0.76 403.34 122.76 464.34 119.76 757.34 338.76 870.34 342.76 397.34 0.76 253.34"/><polygon class="cls-2" points="119.76 742.34 119.76 757.34 337.76 869.34 337.76 854.34 119.76 742.34"/><polygon class="cls-3" points="342.76 397.34 342.76 372.34 0.76 230.34 0.76 253.34 342.76 397.34"/><polygon class="cls-1" points="342.76 372.34 346.76 108.34 0.76 0.34 0.76 230.34 342.76 372.34"/><polygon class="cls-1" points="346.76 108.34 396.76 97.34 386.76 833.34 337.76 869.34 346.76 108.34"/><polygon class="cls-2" points="337.76 854.34 386.94 820.09 386.76 833.34 337.76 869.34 337.76 854.34"/><polygon class="cls-3" points="342.76 372.34 393.29 352.88 393.76 375.34 342.76 397.34 342.76 372.34"/><polygon class="cls-4" points="0.26 389.16 0.76 407.01 122.76 464.34 0.26 389.16"/><polyline class="cls-1" points="122.76 464.34 0.76 407.01 0.76 385.66"/></g></g></svg>