<svg xmlns="http://www.w3.org/2000/svg" viewBox="0 0 135.75 208.5"><defs><style>.cls-1{fill:#bfc92c;}.cls-2{fill:#c9cc2f;}.cls-3{fill:#b1c82f;}.cls-4{fill:#c3c52b;}.cls-5{fill:#d3d633;}.cls-6{fill:#c1cc2e;}.cls-7{fill:#b9c42a;}.cls-8{fill:#a2ad20;}.cls-9{fill:#a3c32a;}.cls-10{fill:#7f932e;}.cls-11{fill:#768f2f;}.cls-12{fill:#6c7a30;}.cls-13{fill:#7f8c2d;}.cls-14{fill:#6b7b30;}.cls-15{fill:#7e932e;}.cls-16{fill:#a6ad1f;}.cls-17{fill:#bec12a;}.cls-18{fill:#a8bf24;}.cls-19{fill:#6a742f;}.cls-20{fill:#67441f;}</style></defs><g id="레이어_2" data-name="레이어 2"><g id="레이어_1-2" data-name="레이어 1"><polygon class="cls-1" points="21.94 32.25 44.25 38.44 58.69 72.38 48.75 0 35.06 0 23.63 9.38 21.94 32.25"/><polygon class="cls-2" points="48.75 0 83.25 20.63 105.19 41.63 81.94 72.38 58.69 72.38 48.75 0"/><polygon class="cls-3" points="48.75 0 74.63 8.06 83.25 20.63 48.75 0"/><polygon class="cls-4" points="74.63 8.06 96 10.31 106.88 18.38 113.44 29.63 83.25 20.63 74.63 8.06"/><polygon class="cls-5" points="83.25 20.63 113.44 29.63 105.19 41.63 83.25 20.63"/><polygon class="cls-6" points="113.44 29.63 122.44 32.25 126.56 48.94 113.44 86.06 105.19 41.63 113.44 29.63"/><polygon class="cls-7" points="126.56 48.94 132.38 72.38 128.63 86.06 113.44 86.06 126.56 48.94"/><polygon class="cls-8" points="81.94 72.38 105.19 41.63 113.44 86.06 100.31 133.13 69 83.44 81.94 72.38"/><polygon class="cls-9" points="113.44 86.06 128.63 86.06 135.75 124.31 100.31 133.13 113.44 86.06"/><polygon class="cls-10" points="58.69 72.38 81.94 72.38 69 83.44 64.69 135.56 49.69 145.5 40.31 133.13 40.31 80.63 58.69 72.38"/><polygon class="cls-11" points="69 83.44 100.31 133.13 80.06 162.19 66 150.38 64.69 135.56 69 83.44"/><polygon class="cls-12" points="100.31 133.13 100.31 162.19 80.06 162.19 100.31 133.13"/><polygon class="cls-13" points="100.31 133.13 135.75 124.31 118.03 156.38 100.31 162.19 100.31 133.13"/><polygon class="cls-14" points="64.69 135.56 66 150.38 76.97 159.59 61.13 158.81 56.81 153.38 49.69 145.5 64.69 135.56"/><polygon class="cls-15" points="40.31 80.63 40.31 133.13 15.75 152.25 9 129.38 11.63 102.94 24.66 86.06 40.31 80.63"/><polygon class="cls-16" points="21.94 32.25 44.25 38.44 58.69 72.38 40.31 80.63 24.66 86.06 21.94 32.25"/><polygon class="cls-17" points="9 36.19 21.94 32.25 24.66 86.06 5.63 88.5 1.13 79.13 0 48.94 9 36.19"/><polygon class="cls-18" points="5.63 88.5 24.66 86.06 11.63 102.94 5.63 88.5"/><polygon class="cls-19" points="40.31 133.13 49.69 144.56 56.81 153.38 49.69 159.59 24.66 159.59 15.75 152.25 40.31 133.13"/><polygon class="cls-20" points="65.63 174.38 54.38 168.56 46.39 159.59 49.69 159.59 51.02 158.43 56.81 166.4 64.69 167.63 62.63 162.19 61.13 158.81 67.31 159.12 69 164.63 76.97 159.59 80.06 162.19 75.75 169.5 76.13 177.19 84.75 171.19 89.06 162.19 91.22 162.19 87.56 171.75 76.97 182.25 76.97 202.31 80.06 206.81 93.56 206.81 93.56 208.5 58.69 207.38 64.69 202.69 65.63 174.38"/></g></g></svg>