<svg xmlns="http://www.w3.org/2000/svg" viewBox="0 0 132.07 438.54"><defs><style>.cls-1{fill:#9cb942;}.cls-2{fill:#aac72d;}.cls-3{fill:#a9b53b;}.cls-4{fill:#bed755;}.cls-5{fill:#799a2f;}.cls-6{fill:#768a30;}.cls-7{fill:#78912f;}.cls-8{fill:#687930;}.cls-9{fill:#7d912e;}.cls-10{fill:#91b226;}.cls-11{fill:#6b5827;}</style></defs><g id="레이어_2" data-name="레이어 2"><g id="레이어_2-2" data-name="레이어 2"><polygon class="cls-1" points="53.88 0 24 64.04 0 127.79 16.29 242.21 6.25 260.66 10.38 284.66 49.63 359.54 74.93 362.4 85.13 366.11 100.04 348.66 129.38 273.91 132.07 241.09 126.85 216.22 132 135.66 112.43 97.69 114.09 84.66 100.98 67.38 100.5 36.13 53.88 0"/><polygon class="cls-2" points="53.92 0 24.05 64.25 53.92 114.88 105 147.5 100.55 36.13 53.92 0"/><polygon class="cls-3" points="28.8 228.41 54.23 114.88 24.05 64.25 28.8 228.41"/><polygon class="cls-1" points="0.05 127.79 16.34 242.21 28.8 228.41 24.05 64.04 0.05 127.79"/></g><g id="레이어_1-2" data-name="레이어 1"><polygon class="cls-1" points="114.14 84.66 104.77 158.16 101.02 67.38 114.14 84.66"/><polygon class="cls-4" points="102.01 256.17 126.83 214.04 132.05 135.66 112.48 97.69 104.24 154.03 102.01 256.17"/><polygon class="cls-5" points="74.97 362.4 85.17 366.11 99.42 350.36 105 147.5 53.92 114.48 74.97 362.4"/><polyline class="cls-6" points="28.8 228.41 14.92 243.79 6.3 260.66 10.42 284.66 32.55 249.04 53.79 115.49 28.8 228.41"/><polygon class="cls-7" points="49.92 256.79 10.42 284.66 32.55 247.79 53.92 114.66 64.92 233.39 49.92 256.79"/><polygon class="cls-8" points="49.67 359.54 10.42 284.66 49.92 256.79 64.92 233.39 76.05 363.11 49.67 359.54"/><polygon class="cls-9" points="118.99 246.21 102.01 256.17 99.42 350.36 129.49 273.71 118.99 246.21"/><polygon class="cls-10" points="132.05 241.41 126.83 214.16 102.01 256.17 119.42 247.66 129.42 273.91 132.05 241.41"/><polygon class="cls-11" points="61.3 431.29 61.3 361.03 77.55 363.11 80.09 364.03 81.05 431.29 87.3 435.29 107.55 437.29 80.09 438.54 70.8 436.29 49.3 436.79 61.3 431.29"/></g></g></svg>