<svg xmlns="http://www.w3.org/2000/svg" viewBox="0 0 234 214.16"><defs><style>.cls-1{fill:#c2cd2f;}.cls-2{fill:#7e942e;}.cls-3{fill:#aabd22;}.cls-4{fill:#c8c82c;}.cls-5{fill:#9fac21;}.cls-6{fill:#b2ba24;}.cls-7{fill:#aac62c;}.cls-8{fill:#d3d633;}.cls-9{fill:#cad638;}.cls-10{fill:#acb722;}.cls-11{fill:#a3be24;}.cls-12{fill:#b5bc25;}.cls-13{fill:#7f8d2d;}.cls-14{fill:#7e8b2d;}.cls-15{fill:#6c7a30;}.cls-16{fill:#7b962e;}.cls-17{fill:#6c7c30;}.cls-18{fill:#7f932e;}.cls-19{fill:#7d912e;}.cls-20{fill:#707830;}.cls-21{fill:#7a5f40;}</style></defs><g id="레이어_2" data-name="레이어 2"><g id="레이어_1-2" data-name="레이어 1"><polygon class="cls-1" points="10.13 97.13 0 103.03 3.28 136.59 18.38 146.25 51.56 146.25 68.69 146.91 74.19 150.75 84.56 151.78 97.24 139.22 103.31 145.03 124.98 146.25 130.22 150.28 157.88 150.75 181.69 142.31 218.25 143.06 231.19 123.56 234 96.84 219.94 70.97 221.63 67.69 221.63 59.91 209.91 36.38 198 25.97 186.09 24.56 176.34 9 162.28 0.75 129.66 0 106.13 4.22 82.69 4.22 60.56 10.03 64.31 31.22 43.88 27.84 22.97 54.47 24.31 81.78 14.53 87.66 10.13 97.13"/><polygon class="cls-2" points="40.59 135.84 51.56 146.25 18.38 146.25 3.28 136.59 0 103.03 10.13 97.13 29.91 102.47 40.59 135.84"/><polygon class="cls-3" points="22.69 82.41 14.53 87.66 10.13 97.13 29.91 102.47 57.47 77.72 22.69 82.41"/><polygon class="cls-4" points="22.97 54.47 43.88 27.84 59.25 29.34 57.47 77.72 22.69 82.41 22.97 54.47"/><polygon class="cls-5" points="59.25 29.34 88.69 33.38 104.53 58.22 80.34 70.03 57.47 77.72 59.25 29.34"/><polygon class="cls-1" points="88.69 33.38 104.53 58.22 106.13 4.22 82.69 4.22 60.56 10.03 59.25 29.34 88.69 33.38"/><polygon class="cls-6" points="106.13 4.22 104.53 58.22 136.88 57.19 172.59 41.53 143.34 15.94 106.13 4.22"/><polygon class="cls-7" points="106.13 4.22 129.66 0 143.34 15.94 106.13 4.22"/><polygon class="cls-8" points="129.66 0 143.34 15.94 172.59 41.53 186.09 24.56 176.34 9 162.28 0.75 129.66 0"/><polygon class="cls-9" points="172.59 41.53 186.09 24.56 198 25.97 209.91 36.38 221.63 59.91 221.63 67.69 219.94 70.97 179.44 71.72 172.59 41.53"/><polygon class="cls-10" points="172.59 41.53 136.88 57.19 117.28 71.72 157.88 109.69 179.44 71.72 172.59 41.53"/><polygon class="cls-11" points="179.44 71.72 219.94 70.97 205.5 98.44 157.88 109.69 179.44 71.72"/><polygon class="cls-12" points="219.94 70.97 234 96.84 231.19 123.56 205.5 98.44 219.94 70.97"/><polygon class="cls-13" points="205.5 98.44 200.34 120.38 181.69 142.31 218.25 143.06 231.19 123.56 205.5 98.44"/><polygon class="cls-14" points="157.88 109.69 205.5 98.44 200.34 120.38 181.69 142.31 157.88 150.75 157.88 109.69"/><polygon class="cls-15" points="157.88 109.69 157.88 150.75 130.22 150.28 157.88 109.69"/><polygon class="cls-16" points="117.28 71.72 157.88 109.69 130.22 150.28 115.13 138.66 109.06 123.03 108.31 112.66 117.28 71.72"/><polygon class="cls-17" points="115.13 138.66 109.06 123.03 108.31 112.66 86.19 128.66 103.31 145.03 124.98 146.25 115.13 138.66"/><polygon class="cls-18" points="108.31 112.66 117.28 71.72 136.88 57.19 104.53 58.22 80.34 70.03 74.19 109.69 86.19 128.66 108.31 112.66"/><polygon class="cls-19" points="80.34 70.03 74.19 109.69 40.59 135.84 29.91 102.47 57.47 77.72 80.34 70.03"/><polygon class="cls-20" points="74.19 109.69 86.19 128.66 97.24 139.22 84.56 151.78 74.19 150.75 68.69 146.91 51.56 146.25 40.59 135.84 74.19 109.69"/><polygon class="cls-21" points="86.19 150.17 94.69 155.03 107.44 157.66 103.31 145.03 113.18 145.59 114.31 153.03 124.98 146.25 130.22 150.28 123.69 159.53 123.56 171.03 134.31 163.53 141.94 150.48 144.05 150.52 142.31 158.03 138.69 164.66 123.44 178.28 124.31 206.03 130.22 211.03 148.36 212.28 125.94 214.16 115.44 211.78 97.94 212.03 108.31 207.03 108.31 165.41 80.34 151.78 84.56 151.78 86.19 150.17"/></g></g></svg>