<svg xmlns="http://www.w3.org/2000/svg" viewBox="0 0 309.97 404.37"><defs><style>.cls-1{fill:#516636;stroke:#516636;}.cls-1,.cls-10,.cls-11,.cls-12,.cls-13,.cls-14,.cls-15,.cls-16,.cls-17,.cls-18,.cls-19,.cls-2,.cls-3,.cls-4,.cls-5,.cls-6,.cls-7,.cls-8,.cls-9{stroke-miterlimit:10;}.cls-2{fill:#65995c;stroke:#65995c;}.cls-3{fill:#006837;stroke:#006837;}.cls-4{fill:#98bc69;stroke:#98bc69;}.cls-5{fill:#416624;stroke:#416624;}.cls-6{fill:#5d8e3a;stroke:#5d8e3a;}.cls-7{fill:#8cc63f;stroke:#8cc63f;}.cls-8{fill:#fff;stroke:#000;}.cls-9{fill:#84ad53;stroke:#84ad53;}.cls-10{fill:#456f27;stroke:#456f27;}.cls-11{fill:#386b3e;stroke:#386b3e;}.cls-12{fill:#9cb75a;stroke:#9cb75a;}.cls-13{fill:#9b7024;stroke:#9b7024;}.cls-14{fill:#7caa3a;stroke:#7caa3a;}.cls-15{fill:#619b21;stroke:#619b21;}.cls-16{fill:#95ce5d;stroke:#95ce5d;}.cls-17{fill:#5b8c34;stroke:#5b8c34;}.cls-18{fill:#ba8527;stroke:#ba8527;}.cls-19{fill:#c6932b;stroke:#c6932b;}</style></defs><g id="레이어_2" data-name="레이어 2"><g id="레이어_1-2" data-name="레이어 1"><path class="cls-1" d="M39.55,188.87l53,37,82-12,58-42,32-62-27-71-76-37-85,14s-59.5,54.5-50,50h0l-23.29,48Z"/><polygon class="cls-2" points="90.55 225.87 81.55 167.87 37.55 188.87 90.55 225.87"/><polygon class="cls-3" points="1.26 113.87 81.55 167.87 37.55 188.87 1.26 113.87"/><polygon class="cls-4" points="24.55 65.87 81.55 167.87 1.26 113.87 24.55 65.87"/><polygon class="cls-2" points="74.55 15.87 111.34 116.87 24.55 65.87 74.55 15.87"/><polygon class="cls-5" points="81.55 168.87 172.55 214.87 90.55 226.87 81.55 168.87"/><polygon class="cls-6" points="111.34 116.87 81.55 167.87 172.55 213.87 111.34 116.87"/><polygon class="cls-7" points="186.55 132.87 172.55 213.87 111.34 116.87 186.55 132.87"/><path class="cls-8" d="M111.34,116.87l-36.79-101Z"/><polygon class="cls-9" points="159.55 1.87 172.55 93.65 111.34 116.87 74.55 15.87 159.55 1.87"/><polygon class="cls-6" points="186.55 132.87 172.55 93.65 111.34 116.87 186.55 132.87"/><polygon class="cls-10" points="235.55 38.87 172.55 93.65 159.55 1.87 235.55 38.87"/><polygon class="cls-11" points="186.55 132.87 230.55 171.87 172.55 213.87 186.55 132.87"/><polygon class="cls-12" points="262.55 109.87 186.55 132.87 172.55 93.65 235.55 38.87 262.55 109.87"/><path class="cls-13" d="M168.93,402.87l-28-57.91,19-104.65-19-20.43c-17,3.29-17,3.17-17,3.17l17.33,25.33-29.55,87.93,11.55,42.24-17.33,24.32Z"/><polygon class="cls-13" points="150.55 296.87 197.55 278.97 214.55 290.87 146.55 319.87 150.55 296.87"/><path class="cls-11" d="M197.55,245.87v32c20,13.89,18,13,18,13l48,8,37-21,8.87-37.18-25.7-24.34-31.17-10.48-26.29,7Z"/><polygon class="cls-14" points="308.55 239.87 263.55 254.87 283.55 215.87 308.55 239.87"/><polygon class="cls-4" points="282.55 215.87 262.55 254.87 241.55 227.87 282.55 215.87"/><path class="cls-1" d="M282.55,214.87l-41,12s0,0,0,0l11-21h0Z"/><polygon class="cls-15" points="159.55 1.87 111.34 116.87 172.55 93.65 159.55 1.87"/><polygon class="cls-11" points="172.55 93.65 262.55 109.87 235.55 38.87 172.55 93.65"/><polygon class="cls-2" points="229.55 252.87 240.55 225.87 263.55 254.87 229.55 252.87"/><path class="cls-9" d="M240.61,225.77l11.82-19.71a.09.09,0,0,0-.1-.13l-25.62,6.89a.1.1,0,0,0,0,.16l13.8,12.81A.09.09,0,0,0,240.61,225.77Z"/><polygon class="cls-16" points="240.55 226.87 229.55 253.87 199.55 245.87 240.55 226.87"/><polygon class="cls-17" points="300.55 277.87 264.55 297.87 263.55 255.87 300.55 277.87"/><polygon class="cls-7" points="262.55 256.87 240.55 294.87 263.55 298.87 262.55 256.87"/><polygon class="cls-7" points="225.55 213.87 198.55 244.87 239.55 225.87 225.55 213.87"/><path class="cls-14" d="M214.37,290.4l-16.74-44.31a.13.13,0,0,1,.15-.17l31.63,7.91a.14.14,0,0,1,.09.17l-14.76,36.41A.2.2,0,0,1,214.37,290.4Z"/><polygon class="cls-4" points="197.55 247.87 197.55 276.87 213.55 289.87 197.55 247.87"/><polygon class="cls-6" points="230.55 253.87 263.55 254.87 215.55 290.87 230.55 253.87"/><polygon class="cls-18" points="150.55 296.87 149.55 303.87 202.55 282.87 197.55 277.97 150.55 296.87"/><polygon class="cls-19" points="124.9 222.83 141.94 249.38 116.55 346.33 131.55 385.88 119 403.87 98.55 403.87 115.88 379.55 104.34 337.31 133.88 249.38 116.55 224.05 124.9 222.83"/><polygon class="cls-1" points="242.55 294.87 262.55 256.87 216.55 290.87 242.55 294.87"/></g></g></svg>