<svg xmlns="http://www.w3.org/2000/svg" viewBox="0 0 279.63 375.01"><defs><style>.cls-1{fill:#fff;stroke:#000;}.cls-1,.cls-10,.cls-11,.cls-12,.cls-2,.cls-3,.cls-4,.cls-5,.cls-6,.cls-7,.cls-8,.cls-9{stroke-miterlimit:10;}.cls-2{fill:#98bc69;stroke:#98bc69;}.cls-3{fill:#65995c;stroke:#65995c;}.cls-4{fill:#516636;stroke:#516636;}.cls-5{fill:#84ad53;stroke:#84ad53;}.cls-6{fill:#006837;stroke:#006837;}.cls-7{fill:#416624;stroke:#416624;}.cls-8{fill:#8cc63f;stroke:#8cc63f;}.cls-9{fill:#386b3e;stroke:#386b3e;}.cls-10{fill:#619b21;stroke:#619b21;}.cls-11{fill:#9b7024;stroke:#9b7024;}.cls-12{fill:#c6932b;stroke:#c6932b;}</style></defs><g id="레이어_2" data-name="레이어 2"><g id="레이어_1-2" data-name="레이어 1"><polygon class="cls-1" points="79.64 249.51 147.64 255.01 218.64 239.51 266.89 191.51 278.64 120.51 263.64 47.51 182.64 0.51 79.64 4.76 16.64 48.51 0.64 127.76 17.64 197.51 79.64 249.51"/><polygon class="cls-2" points="16.64 48.51 92.64 106.51 0.64 127.76 16.64 48.51"/><polygon class="cls-3" points="16.64 48.51 116.64 84.51 79.64 4.76 16.64 48.51"/><polygon class="cls-4" points="261.64 46.51 82.64 4.51 182.64 0.51 261.64 46.51"/><polygon class="cls-5" points="116.64 84.51 263.64 47.51 79.64 4.76 116.64 84.51"/><polygon class="cls-6" points="263.64 47.51 200.64 94.51 278.64 120.51 263.64 47.51"/><polygon class="cls-3" points="116.64 84.51 200.64 94.51 263.64 47.51 116.64 84.51"/><polygon class="cls-6" points="116.64 84.51 92.64 106.51 16.64 48.51 116.64 84.51"/><polygon class="cls-5" points="92.64 106.51 17.64 197.51 0.64 127.76 92.64 106.51"/><polygon class="cls-7" points="92.64 106.51 105.64 150.01 116.64 84.51 92.64 106.51"/><polygon class="cls-8" points="105.64 150.01 79.64 249.51 17.64 197.51 105.64 150.01"/><polygon class="cls-3" points="92.64 106.51 105.64 150.01 17.64 197.51 92.64 106.51"/><polygon class="cls-9" points="105.64 150.01 200.64 94.51 116.64 84.51 105.64 150.01"/><polygon class="cls-10" points="200.64 94.51 190.14 197.51 105.64 150.01 200.64 94.51"/><polygon class="cls-5" points="190.14 197.51 266.89 191.51 218.64 239.51 190.14 197.51"/><polygon class="cls-3" points="200.64 94.51 190.14 197.51 278.64 120.51 200.64 94.51"/><polygon class="cls-8" points="278.64 120.51 266.89 191.51 190.14 197.51 278.64 120.51"/><polygon class="cls-2" points="190.14 197.51 79.64 249.51 105.64 150.01 190.14 197.51"/><polygon class="cls-7" points="79.64 249.51 147.64 255.51 190.64 197.51 79.64 249.51"/><polygon class="cls-4" points="190.64 197.51 147.64 255.51 218.64 239.51 190.64 197.51"/><polygon class="cls-11" points="136.43 254.1 119.64 295.51 128.03 358.51 116.64 374.51 175.14 374.51 145.89 311.01 159.99 252.31 147.64 255.01 136.43 254.1"/><polygon class="cls-12" points="136.43 254.1 142.78 254.61 127.64 297.51 137.64 360.51 129.46 374.51 116.64 374.51 128.03 358.51 119.64 295.51 136.43 254.1"/></g></g></svg>