<svg xmlns="http://www.w3.org/2000/svg" viewBox="0 0 285.66 496.63"><defs><style>.cls-1{fill:#84ad53;stroke:#84ad53;}.cls-1,.cls-10,.cls-2,.cls-3,.cls-4,.cls-5,.cls-6,.cls-7,.cls-8,.cls-9{stroke-miterlimit:10;}.cls-2{fill:#65995c;stroke:#65995c;}.cls-3{fill:#416624;stroke:#416624;}.cls-4{fill:#8cc63f;stroke:#8cc63f;}.cls-5{fill:#98bc69;stroke:#98bc69;}.cls-6{fill:#718950;stroke:#718950;}.cls-7{fill:#386b3e;stroke:#386b3e;}.cls-8{fill:#516636;stroke:#516636;}.cls-9{fill:#9b7024;stroke:#9b7024;}.cls-10{fill:#c6932b;stroke:#c6932b;}</style></defs><g id="레이어_2" data-name="레이어 2"><g id="레이어_1-2" data-name="레이어 1"><polygon class="cls-1" points="102.93 416.12 33.93 359.12 0.81 228.62 25.93 128.12 62.93 22.12 149.93 1.12 229.93 20.12 283.93 132.12 277.93 250.12 252.93 377.12 201.65 416.12 102.93 416.12"/><polygon class="cls-2" points="25.93 128.12 69.93 81.12 62.93 22.12 25.93 128.12"/><polygon class="cls-3" points="0.81 228.62 95.93 292.12 25.93 128.12 0.81 228.62"/><polygon class="cls-2" points="149.93 1.12 156.93 94.12 69.93 81.12 149.93 1.12"/><polygon class="cls-3" points="62.93 22.12 149.93 1.12 69.93 81.12 62.93 22.12"/><polygon class="cls-4" points="149.93 1.12 229.93 20.12 156.93 94.12 149.93 1.12"/><polygon class="cls-2" points="164.93 161.12 229.93 20.12 283.93 132.12 164.93 161.12"/><polygon class="cls-5" points="229.93 20.12 156.93 94.12 164.93 161.12 229.93 20.12"/><polygon class="cls-6" points="68.93 82.12 163.93 162.12 155.93 95.12 68.93 82.12"/><polygon class="cls-1" points="25.93 128.12 163.93 162.12 69.93 81.12 25.93 128.12"/><polygon class="cls-7" points="94.93 290.12 163.93 162.12 25.93 128.12 94.93 290.12"/><polygon class="cls-8" points="174.93 234.12 283.93 132.12 164.93 161.12 174.93 234.12"/><polygon class="cls-4" points="277.93 250.12 174.93 234.12 283.93 132.12 277.93 250.12"/><polygon class="cls-5" points="277.93 250.12 95.93 292.12 174.93 234.12 277.93 250.12"/><polygon class="cls-2" points="95.93 292.12 33.93 359.12 0.81 228.62 95.93 292.12"/><polygon class="cls-7" points="105.93 416.12 251.93 377.12 204.65 416.12 105.93 416.12"/><polygon class="cls-2" points="102.93 416.12 95.93 292.12 252.93 377.12 102.93 416.12"/><polygon class="cls-4" points="33.93 359.12 102.93 416.12 95.93 292.12 33.93 359.12"/><polygon class="cls-6" points="277.93 250.12 95.93 292.12 177.93 336.12 277.93 250.12"/><polygon class="cls-9" points="173.93 416.12 182.93 496.12 114.93 496.12 130.93 416.12 173.93 416.12"/><polygon class="cls-10" points="146.43 416.12 138.68 495.89 114.93 496.12 130.43 416.12 146.43 416.12"/></g></g></svg>