<svg xmlns="http://www.w3.org/2000/svg" viewBox="0 0 308.4 476.55"><defs><style>.cls-1{fill:#fff;stroke:#000;}.cls-1,.cls-10,.cls-11,.cls-12,.cls-13,.cls-14,.cls-2,.cls-3,.cls-4,.cls-5,.cls-6,.cls-7,.cls-8,.cls-9{stroke-miterlimit:10;}.cls-2{fill:#9cb75a;stroke:#9cb75a;}.cls-3{fill:#516636;stroke:#516636;}.cls-4{fill:#5d8e3a;stroke:#5d8e3a;}.cls-5{fill:#84ad53;stroke:#84ad53;}.cls-6{fill:#8cc63f;stroke:#8cc63f;}.cls-7{fill:#386b3e;stroke:#386b3e;}.cls-8{fill:#98bc69;stroke:#98bc69;}.cls-9{fill:#65995c;stroke:#65995c;}.cls-10{fill:#006837;stroke:#006837;}.cls-11{fill:#619b21;stroke:#619b21;}.cls-12{fill:#416624;stroke:#416624;}.cls-13{fill:#9b7024;stroke:#976e26;}.cls-14{fill:#c6932b;stroke:#c6932b;}</style></defs><g id="레이어_2" data-name="레이어 2"><g id="레이어_1-2" data-name="레이어 1"><polygon class="cls-1" points="144.1 2.05 66.1 121.05 24.1 254.05 1.1 391.05 155.6 400.95 305.6 385.05 286.1 253.05 240.35 101.05 144.1 2.05"/><polygon class="cls-2" points="144.1 2.05 184.85 111.55 66.1 121.05 144.1 2.05"/><polygon class="cls-3" points="144.1 2.05 184.85 111.55 240.35 101.05 144.1 2.05"/><polygon class="cls-4" points="184.85 111.55 24.1 254.05 66.1 121.05 184.85 111.55"/><polygon class="cls-5" points="184.85 111.55 286.1 253.05 240.35 101.05 184.85 111.55"/><polygon class="cls-6" points="184.85 111.55 144.1 204.8 24.1 254.05 184.85 111.55"/><polygon class="cls-7" points="144.1 204.8 286.1 253.05 184.85 111.55 144.1 204.8"/><polygon class="cls-8" points="24.1 254.05 211.85 303.05 144.1 204.8 24.1 254.05"/><polygon class="cls-9" points="286.1 253.05 211.85 303.05 144.1 204.8 286.1 253.05"/><polygon class="cls-10" points="24.1 254.05 66.1 323.05 1.1 391.05 24.1 254.05"/><polygon class="cls-11" points="24.1 254.05 211.85 303.05 66.1 323.05 24.1 254.05"/><polygon class="cls-3" points="286.1 253.05 212.1 303.05 305.6 385.05 286.1 253.05"/><polygon class="cls-5" points="66.1 323.05 305.6 385.05 212.1 303.05 66.1 323.05"/><polygon class="cls-9" points="66.1 323.05 155.6 400.95 1.1 391.05 66.1 323.05"/><polygon class="cls-12" points="305.6 385.05 155.6 400.95 66.1 323.05 305.6 385.05"/><polygon class="cls-13" points="124.48 400.02 134.1 430.05 111.1 476.05 183.85 476.05 165.1 423.05 172.81 400.02 154.6 401.95 124.48 400.02"/><polygon class="cls-14" points="135.56 476.05 153.1 443.05 144.1 401.05 124.1 400.05 134.1 430.55 110.6 476.05 135.56 476.05"/></g></g></svg>